<?xml version="1.0" encoding="UTF-8"?>
<svg width="1200px" height="788px" viewBox="0 0 1200 788" version="1.1" xmlns="http://www.w3.org/2000/svg" xmlns:xlink="http://www.w3.org/1999/xlink">
    <!-- Generator: Sketch 3.8.3 (29802) - http://www.bohemiancoding.com/sketch -->
    <title>abstract-graphic 1200x560</title>
    <desc>Created with Sketch.</desc>
    <defs></defs>
    <g id="Page-1" stroke="none" stroke-width="1" fill="none" fill-rule="evenodd">
        <g id="main-page-header-1200x560" fill="#F67F12">
            <g id="Heaader" transform="translate(-380.000000, -92.000000)">
                <g id="abstract-graphic-1200x560">
                    <polygon id="Path-907" points="1580 518.175781 1580 563.175781 830 544.5"></polygon>
                    <g id="Page-1" transform="translate(517.601024, 517.560609) rotate(129.000000) translate(-517.601024, -517.560609) translate(147.601024, 152.060609)">
                        <polygon id="Fill-1" points="206 121 295.425715 267.499759 380.893311 241.788819 538.624969 406.009644 739.522069 243.34311 650.038116 135.396396 311.536138 217.202024"></polygon>
                        <polygon id="Fill-2" points="218.719947 321.92241 307.862572 317.853831 400.159409 518.13681 514.657898 425.417786 372.124115 279.318361 246.581199 277.070072 207 122"></polygon>
                        <polygon id="Fill-3" points="207 119.682554 335.147349 198.852241 606.106171 81.1449294 540.855957 0.5676428 323.022276 156.555183"></polygon>
                        <polygon id="Fill-4" points="0.0845790647 588.360931 114.915889 730.165771 206.879364 123"></polygon>
                    </g>
                </g>
            </g>
        </g>
    </g>
</svg>