<?xml version="1.0" encoding="UTF-8"?>
<svg width="1399px" height="674px" viewBox="0 0 1399 674" version="1.1" xmlns="http://www.w3.org/2000/svg" xmlns:xlink="http://www.w3.org/1999/xlink">
    <!-- Generator: Sketch 3.8.3 (29802) - http://www.bohemiancoding.com/sketch -->
    <title>abstract-graphic 1400x560</title>
    <desc>Created with Sketch.</desc>
    <defs></defs>
    <g id="Page-1" stroke="none" stroke-width="1" fill="none" fill-rule="evenodd">
        <g id="main-page-header-1400x560" fill="#F67F12">
            <g id="Heaader" transform="translate(-263.000000, -98.000000)">
                <g id="abstract-graphic-1400x560" transform="translate(0.000000, 6.000000)">
                    <polygon id="Path-907" points="1662 517.515625 1662 562.515625 812 544.5"></polygon>
                    <g id="Page-1" transform="translate(479.268536, 483.081051) rotate(129.000000) translate(-479.268536, -483.081051) translate(123.268536, 155.081051)">
                        <polygon id="Fill-1" points="206 46 295.425715 192.499759 380.893311 166.788819 607.042572 404.282104 711.971527 318.025543 529.468597 92.6532249 311.536138 142.202024"></polygon>
                        <polygon id="Fill-2" points="218.719947 246.92241 307.862572 242.853831 442.06601 537.877502 584.441589 422.584015 372.124115 204.318361 246.581199 202.070072 207 47"></polygon>
                        <polygon id="Fill-3" points="207 44.6825542 335.147349 123.852241 501.808014 58.4952335 455.181763 0.916610363 323.022276 81.5551832"></polygon>
                        <polygon id="Fill-4" points="0.0845790647 513.360931 114.915889 655.165771 206.879363 48"></polygon>
                    </g>
                </g>
            </g>
        </g>
    </g>
</svg>