<?xml version="1.0" encoding="UTF-8" standalone="no"?>
<svg width="1024px" height="764px" viewBox="0 0 1024 764" version="1.1" xmlns="http://www.w3.org/2000/svg" xmlns:xlink="http://www.w3.org/1999/xlink">
    <!-- Generator: Sketch 40.3 (33839) - http://www.bohemiancoding.com/sketch -->
    <title>background-texture</title>
    <desc>Created with Sketch.</desc>
    <defs></defs>
    <g id="Page-1" stroke="none" stroke-width="1" fill="none" fill-rule="evenodd">
        <g id="single-page" transform="translate(0.000000, -333.000000)">
            <g transform="translate(-868.000000, -10.000000)" id="background-texture">
                <g transform="translate(0.000000, 149.000000)">
                    <path d="M1080.9687,681.162602 L2162.63121,194.498803 L2162.63121,1088.37109 L1086.22459,688.145979 L1080.9687,681.162602 Z M1133.80702,257.275698 L1081.30619,194 L1080.63121,194.997606 L1133.13203,258.273304 L1133.80702,257.275698 Z" id="Combined-Shape" fill="#F8F8F8"></path>
                    <g id="Page-1" opacity="0.238620924" transform="translate(655.368795, 666.637548) rotate(129.000000) translate(-655.368795, -666.637548) translate(145.368795, 237.137548)" fill="#CACACA">
                        <polygon id="Fill-1" points="247.334857 86.751778 412.395278 357.158471 570.149871 309.701668 797.20058 586.14278 972.730472 395.696898 667.899766 211.780371 442.131615 264.319792"></polygon>
                        <polygon id="Fill-2" points="270.813112 457.610848 435.35101 450.101137 588.326888 773.62785 804.898626 631.771414 553.963843 378.973041 322.238924 374.823188 249.180639 88.5975605"></polygon>
                        <polygon id="Fill-3" points="249.180639 84.3200596 485.712774 230.450083 614.367559 127.408096 928.024162 298.922654 1019.89329 56.5845755 668.567496 1.36424205e-12 478.701459 133.195046"></polygon>
                        <polygon id="Fill-4" points="0.44841422 682.996647 129.452608 858.010998 248.95797 90.4433431"></polygon>
                    </g>
                </g>
            </g>
        </g>
    </g>
</svg>