<?xml version="1.0" encoding="UTF-8" standalone="no"?>
<svg width="12px" height="13px" viewBox="0 0 12 13" version="1.1" xmlns="http://www.w3.org/2000/svg" xmlns:xlink="http://www.w3.org/1999/xlink">
    <!-- Generator: Sketch 40.3 (33839) - http://www.bohemiancoding.com/sketch -->
    <title>cc-white</title>
    <desc>Created with Sketch.</desc>
    <defs>
        <polygon id="path-1" points="5.93355 12.0470588 11.8670625 12.0470588 11.8670625 0.116894118 5.93355 0.116894118 3.75e-05 0.116894118 3.75e-05 12.0470588 5.93355 12.0470588"></polygon>
    </defs>
    <g id="Page-1" stroke="none" stroke-width="1" fill="none" fill-rule="evenodd">
        <g id="main-page-vr-1" transform="translate(-849.000000, -462.000000)">
            <g id="Heaader" transform="translate(-204.000000, -89.000000)">
                <g id="photo-credits" transform="translate(1042.000000, 551.000000)">
                    <g id="cc-white" transform="translate(11.000000, 0.000000)">
                        <g id="Group-3" transform="translate(0.000000, 0.071322)">
                            <mask id="mask-2" fill="white">
                                <use xlink:href="#path-1"></use>
                            </mask>
                            <g id="Clip-2"></g>
                            <path d="M9.3619125,9.49778824 C8.4015375,10.4455529 7.1644125,10.9522824 5.8946625,10.9522824 C4.6086,10.9522824 3.4039125,10.4455529 2.475975,9.51416471 C1.548225,8.5824 1.0271625,7.3568 1.0271625,6.08207059 C1.0271625,4.79096471 1.548225,3.56536471 2.475975,2.61741176 C3.3876,1.68602353 4.55985,1.19567059 5.8946625,1.19567059 C7.229475,1.19567059 8.41785,1.70221176 9.3457875,2.63378824 C10.257225,3.54898824 10.7456625,4.7584 10.7456625,6.08207059 C10.7456625,7.42211765 10.2735375,8.59877647 9.3619125,9.49778824 M10.15785,1.8656 C9.018225,0.721694118 7.5532875,0.116894118 5.925225,0.116894118 C4.2975375,0.116894118 2.8650375,0.721694118 1.7580375,1.84922353 C0.6186,3.00969412 3.75e-05,4.51312941 3.75e-05,6.08207059 C3.75e-05,7.6672 0.6022875,9.13807059 1.7415375,10.2821647 C2.8811625,11.4260706 4.3624125,12.0470588 5.925225,12.0470588 C7.488225,12.0470588 9.0021,11.4260706 10.1741625,10.2657882 C11.2811625,9.17082353 11.8671,7.71632941 11.8671,6.08207059 C11.8671,4.46418824 11.2811625,2.99331765 10.15785,1.8656" id="Fill-1" fill="#FFFFFF" mask="url(#mask-2)"></path>
                        </g>
                        <path d="M5.81799375,5.16231529 C5.48236875,4.54772706 4.90974375,4.30339765 4.24505625,4.30339765 C3.27755625,4.30339765 2.50749375,4.99045647 2.50749375,6.15337412 C2.50749375,7.33605647 3.23143125,8.00353882 4.27805625,8.00353882 C4.94930625,8.00353882 5.52193125,7.63346824 5.83786875,7.07196235 L5.10061875,6.69530353 C4.93599375,7.09172706 4.68605625,7.21050353 4.37011875,7.21050353 C3.82374375,7.21050353 3.57380625,6.75478588 3.57380625,6.15337412 C3.57380625,5.55215059 3.78436875,5.09624471 4.37011875,5.09624471 C4.52799375,5.09624471 4.84393125,5.18208 5.02824375,5.57850353 L5.81799375,5.16231529" id="Fill-4" fill="#FFFFFF"></path>
                        <path d="M9.296175,5.25202824 C8.9937375,4.62031059 8.4349875,4.34567529 7.7712375,4.30991059 C6.80505,4.25795765 5.99955,4.90285176 5.9374875,6.06388706 C5.8744875,7.24506353 6.5618625,7.95038118 7.6068,8.00647529 C8.2773,8.04242824 8.8688625,7.70360471 9.2142375,7.15998118 L8.498175,6.74435765 C8.3127375,7.13136941 8.0568,7.23659294 7.7412375,7.21946353 C7.1958,7.19028706 6.9702375,6.72176941 7.0021125,6.12111059 C7.034175,5.52101647 7.268925,5.07696941 7.853925,5.10840471 C8.011425,5.11687529 8.3224875,5.21946353 8.4852375,5.62511059 L9.296175,5.25202824" id="Fill-6" fill="#FFFFFF"></path>
                    </g>
                </g>
            </g>
        </g>
    </g>
</svg>