<?xml version="1.0" encoding="UTF-8" standalone="no"?>
<svg width="45px" height="45px" viewBox="0 0 45 45" version="1.1" xmlns="http://www.w3.org/2000/svg" xmlns:xlink="http://www.w3.org/1999/xlink">
    <!-- Generator: Sketch 40.3 (33839) - http://www.bohemiancoding.com/sketch -->
    <title>icon-calendar</title>
    <desc>Created with Sketch.</desc>
    <defs></defs>
    <g id="Page-1" stroke="none" stroke-width="1" fill="none" fill-rule="evenodd">
        <g id="style-guide" transform="translate(-206.000000, -426.000000)">
            <g id="icon-calendar" transform="translate(206.000000, 426.000000)">
                <circle id="Oval-1" fill="#FE4223" cx="22.5" cy="22.5" r="22.5"></circle>
                <path d="M11.9231124,32.8617701 L33.0766571,32.8617701 L33.0766571,17.477332 L11.9231124,17.477332 L11.9231124,32.8617701 Z M15.7697982,10.2659487 C15.7697982,10.1255705 15.8149774,10.0103175 15.9048747,9.92018957 C15.9950026,9.83006168 16.1102557,9.78511299 16.2497119,9.78511299 L17.2113833,9.78511299 C17.351992,9.78511299 17.4672451,9.83006168 17.5571425,9.92018957 C17.6472703,10.0103175 17.692219,10.1255705 17.692219,10.2659487 L17.692219,14.5925482 C17.692219,14.7329264 17.6472703,14.8481795 17.5571425,14.9383073 C17.4672451,15.0282047 17.351992,15.0733839 17.2113833,15.0733839 L16.2497119,15.0733839 C16.1102557,15.0733839 15.9950026,15.0282047 15.9048747,14.9383073 C15.8149774,14.8481795 15.7697982,14.7329264 15.7697982,14.5925482 L15.7697982,10.2659487 Z M27.307781,10.2659487 C27.307781,10.1255705 27.3527297,10.0103175 27.4428575,9.92018957 C27.5327549,9.83006168 27.648008,9.78511299 27.7886167,9.78511299 L28.7502881,9.78511299 C28.8906663,9.78511299 29.0049974,9.83006168 29.0960473,9.92018957 C29.1859447,10.0103175 29.2311239,10.1255705 29.2311239,10.2659487 L29.2311239,14.5925482 C29.2311239,14.7329264 29.1859447,14.8481795 29.0960473,14.9383073 C29.0049974,15.0282047 28.8906663,15.0733839 28.7502881,15.0733839 L27.7886167,15.0733839 C27.648008,15.0733839 27.5327549,15.0282047 27.4428575,14.9383073 C27.3527297,14.8481795 27.307781,14.7329264 27.307781,14.5925482 L27.307781,10.2659487 Z M34.4290364,12.186756 C34.0491623,11.80596 33.5980619,11.6160229 33.0775791,11.6160229 L31.1542362,11.6160229 L31.1542362,10.1735158 C31.1542362,9.51265478 30.9193505,8.94653181 30.4484266,8.47537734 C29.9775026,8.00560591 29.4111491,7.76933716 28.7502881,7.76933716 L27.7886167,7.76933716 C27.1277557,7.76933716 26.5623242,8.00560591 26.0914003,8.47537734 C25.6204763,8.94653181 25.3844381,9.51265478 25.3844381,10.1735158 L25.3844381,11.6160229 L19.6155619,11.6160229 L19.6155619,10.1735158 C19.6155619,9.51265478 19.3804457,8.94653181 18.9095217,8.47537734 C18.4385978,8.00560591 17.8731663,7.76933716 17.2113833,7.76933716 L16.2497119,7.76933716 C15.5888509,7.76933716 15.0234194,8.00560591 14.5524955,8.47537734 C14.0815715,8.94653181 13.8466858,9.51265478 13.8466858,10.1735158 L13.8466858,11.6160229 L11.9233429,11.6160229 C11.4019381,11.6160229 10.9517597,11.80596 10.5709636,12.186756 C10.189937,12.5668606 10,13.017961 10,13.5393658 L10,32.7702592 C10,33.290742 10.189937,33.7409204 10.5709636,34.1221775 C10.9517597,34.502743 11.4019381,34.69268 11.9233429,34.69268 L33.0766571,34.69268 C33.5980619,34.69268 34.0491623,34.502743 34.4290364,34.1221775 C34.810063,33.7409204 35,33.290742 35,32.7702592 L35,13.5393658 C35,13.017961 34.810063,12.5668606 34.4290364,12.186756 L34.4290364,12.186756 Z" id="Page-1" fill="#FFFFFF"></path>
            </g>
        </g>
    </g>
</svg>