<?xml version="1.0" encoding="UTF-8" standalone="no"?>
<svg width="45px" height="45px" viewBox="0 0 45 45" version="1.1" xmlns="http://www.w3.org/2000/svg" xmlns:xlink="http://www.w3.org/1999/xlink">
    <!-- Generator: Sketch 40.3 (33839) - http://www.bohemiancoding.com/sketch -->
    <title>icon-speaker</title>
    <desc>Created with Sketch.</desc>
    <defs>
        <polygon id="path-1" points="0.000121858339 24.5183824 28.46623 24.5183824 28.46623 0.195661546 0.000121858339 0.195661546 0.000121858339 24.5183824"></polygon>
    </defs>
    <g id="Page-1" stroke="none" stroke-width="1" fill="none" fill-rule="evenodd">
        <g id="style-guide" transform="translate(-206.000000, -492.000000)">
            <g id="icon-speaker" transform="translate(206.000000, 492.000000)">
                <circle id="Oval-1" fill="#F6A623" cx="22.5" cy="22.5" r="22.5"></circle>
                <g id="Page-1" transform="translate(9.356436, 9.801980)">
                    <g id="Group-3" transform="translate(0.000000, 0.047095)">
                        <mask id="mask-2" fill="white">
                            <use xlink:href="#path-1"></use>
                        </mask>
                        <g id="Clip-2"></g>
                        <path d="M26.4329018,8.29658363 L26.4329018,2.22112268 C26.4329018,1.67200802 26.2318355,1.19790505 25.8292155,0.796871702 C25.4275704,0.395595603 24.949642,0.195564444 24.3993298,0.195564444 C19.517441,4.24668093 14.7725209,6.27102539 10.1665194,6.27102539 L2.54208682,6.27102539 C1.84310739,6.27102539 1.24429551,6.5196078 0.746382331,7.01555884 C0.248712871,7.51150988 0.000121858339,8.10699099 0.000121858339,8.80297319 L0.000121858339,11.8413105 C0.000121858339,12.5372927 0.248712871,13.1337449 0.746382331,13.6287249 C1.24429551,14.1246759 1.84237624,14.3730156 2.54086824,14.3730156 L4.47914699,14.3730156 C4.2995278,14.9420363 4.18327494,15.5253796 4.12965727,16.1208607 C4.0775019,16.7173128 4.05824829,17.2368112 4.0745773,17.6798414 C4.08968774,18.1226288 4.16962681,18.6554788 4.31244478,19.2776631 C4.45526276,19.8996046 4.5771211,20.3690952 4.6780198,20.6856494 C4.77818736,21.0024463 4.94757045,21.5003394 5.1864128,22.181028 C5.42452399,22.8609883 5.58050267,23.3229534 5.65507997,23.5657097 C6.14153846,24.0084971 6.84100533,24.3015039 7.75153085,24.4437591 C8.66230008,24.5860142 9.55454684,24.5253252 10.4285149,24.2616919 C11.3024829,23.9980586 11.8925209,23.5598835 12.1993602,22.9483805 C11.7972277,22.6315836 11.4716222,22.3650372 11.2223001,22.1489841 C10.9737091,21.9326883 10.7195126,21.669055 10.4597106,21.3580842 C10.2008835,21.0471135 10.0237014,20.756777 9.92743336,20.4885313 C9.83238385,20.2190719 9.8009444,19.9129562 9.83238385,19.5706699 C9.86504189,19.2274125 9.98690023,18.8822131 10.1979589,18.5341007 C9.7950952,18.1226288 9.58403656,17.6342032 9.56283321,17.0700377 C9.54187357,16.5058721 9.7058949,15.9756924 10.0551409,15.4797414 C10.4043869,14.9847614 10.8862148,14.6366489 11.5006245,14.4356467 C15.6845088,14.7837592 19.9839147,16.7884404 24.3993298,20.4487193 C24.949642,20.4487193 25.4275704,20.2477171 25.8292155,19.847412 C26.2318355,19.4463787 26.4329018,18.9713047 26.4329018,18.4231611 L26.4329018,12.3477001 C26.994425,12.3477001 27.4733283,12.1493682 27.8703427,11.7539183 C28.2673572,11.3584683 28.46623,10.881695 28.46623,10.3221419 C28.46623,9.76258869 28.2673572,9.28557263 27.8703427,8.89012268 C27.4733283,8.49491549 26.994425,8.29658363 26.4329018,8.29658363 Z" id="Fill-1" fill="#FFFFFF" mask="url(#mask-2)"></path>
                    </g>
                    <path d="M24.399281,17.9003369 C20.2590221,14.7464476 16.1918781,12.9485947 12.2002864,12.5045935 L12.2002864,8.23281156 C16.1604387,7.80046266 20.2275826,5.99095749 24.399281,2.80599534 L24.399281,17.9003369 Z" id="Fill-4" fill="#F6A623"></path>
                </g>
            </g>
        </g>
    </g>
</svg>