<?xml version="1.0" encoding="UTF-8" standalone="no"?>
<svg width="33px" height="33px" viewBox="0 0 33 33" version="1.1" xmlns="http://www.w3.org/2000/svg" xmlns:xlink="http://www.w3.org/1999/xlink">
    <!-- Generator: Sketch 40.3 (33839) - http://www.bohemiancoding.com/sketch -->
    <title>icon-facebook</title>
    <desc>Created with Sketch.</desc>
    <defs>
        <polyline id="path-1" points="0 0.463575865 32.1449157 0.463575865 32.1449157 32.3425022 0 32.3425022"></polyline>
        <polygon id="path-3" points="0 0.463575865 32.1449157 0.463575865 32.1449157 32.3425022 0 32.3425022"></polygon>
    </defs>
    <g id="Page-1" stroke="none" stroke-width="1" fill="none" fill-rule="evenodd">
        <g id="style-guide" transform="translate(-183.000000, -565.000000)">
            <g id="Group" transform="translate(183.000000, 564.000000)">
                <g id="icon-facebook" transform="translate(0.000000, 1.451231)">
                    <g id="Group-3">
                        <mask id="mask-2" fill="white">
                            <use xlink:href="#path-1"></use>
                        </mask>
                        <g id="Clip-2"></g>
                        <path d="M31.5450657,15.8083682 C31.5450657,24.2828225 24.6174758,31.1538075 16.0730376,31.1538075 C7.52715,31.1538075 0.600284831,24.2828225 0.600284831,15.8083682 C0.600284831,7.33391393 7.52715,0.462929015 16.0730376,0.462929015 C24.6174758,0.462929015 31.5450657,7.33391393 31.5450657,15.8083682" id="Fill-1" fill="#FFFFFF" mask="url(#mask-2)"></path>
                    </g>
                    <g id="Group-6">
                        <mask id="mask-4" fill="white">
                            <use xlink:href="#path-3"></use>
                        </mask>
                        <g id="Clip-5"></g>
                        <path d="M20.0684865,16.9608394 L17.4558742,16.9608394 L17.4558742,26.2086389 L13.5800764,26.2086389 L13.5800764,16.9608394 L11.7378404,16.9608394 L11.7378404,13.6971216 L13.5800764,13.6971216 L13.5800764,11.5840781 C13.5800764,10.0718864 14.3047955,7.70585271 17.489936,7.70585271 L20.3605483,7.71878971 L20.3605483,10.8869175 L18.2769809,10.8869175 C17.9356382,10.8869175 17.4558742,11.0579734 17.4558742,11.7774144 L17.4558742,13.6999965 L20.4091045,13.6999965 L20.0684865,16.9608394 Z M16.0694865,0.463288376 C7.20979551,0.463288376 0.000289887641,7.6152937 0.000289887641,16.4023922 C0.000289887641,25.1923656 7.20979551,32.3422147 16.0694865,32.3422147 C24.9335258,32.3422147 32.1452056,25.1923656 32.1452056,16.4023922 C32.1452056,7.6152937 24.9335258,0.463288376 16.0694865,0.463288376 L16.0694865,0.463288376 Z" id="Fill-4" fill="#4577BA" mask="url(#mask-4)"></path>
                    </g>
                </g>
            </g>
        </g>
    </g>
</svg>