<?xml version="1.0" encoding="UTF-8" standalone="no"?>
<svg width="45px" height="45px" viewBox="0 0 45 45" version="1.1" xmlns="http://www.w3.org/2000/svg" xmlns:xlink="http://www.w3.org/1999/xlink">
    <!-- Generator: Sketch 40.3 (33839) - http://www.bohemiancoding.com/sketch -->
    <title>icon-location</title>
    <desc>Created with Sketch.</desc>
    <defs></defs>
    <g id="Page-1" stroke="none" stroke-width="1" fill="none" fill-rule="evenodd">
        <g id="style-guide" transform="translate(-266.000000, -426.000000)">
            <g id="icon-location" transform="translate(266.000000, 426.000000)">
                <path d="M22.5,45 C34.9264069,45 45,34.9264069 45,22.5 C45,10.0735931 34.9264069,0 22.5,0 C10.0735931,0 0,10.0735931 0,22.5 C0,34.9264069 10.0735931,45 22.5,45 Z" id="Oval-1" fill="#37A9B3"></path>
                <g id="Page-1" transform="translate(14.000000, 11.000000)">
                    <polygon id="Fill-1" fill="#FFFFFF" points="17.9013133 11.3556455 10.3814963 10.0026006 2.86167929 11.3556455 2.86167929 0.110653042 10.3814963 1.46369787 17.9013133 0.110653042"></polygon>
                    <polygon id="Stroke-2" stroke="#FFFFFF" points="17.9013133 11.3556455 10.3814963 10.0026006 2.86167929 11.3556455 2.86167929 0.110653042 10.3814963 1.46369787 17.9013133 0.110653042"></polygon>
                    <polygon id="Fill-4" fill="#FFFFFF" points="0 22.7572896 1.36634512 22.7572896 1.36634512 0.110634479 0 0.110634479"></polygon>
                </g>
            </g>
        </g>
    </g>
</svg>