<?xml version="1.0" encoding="UTF-8" standalone="no"?>
<svg width="45px" height="45px" viewBox="0 0 45 45" version="1.1" xmlns="http://www.w3.org/2000/svg" xmlns:xlink="http://www.w3.org/1999/xlink">
    <!-- Generator: Sketch 40.3 (33839) - http://www.bohemiancoding.com/sketch -->
    <title>icon-award</title>
    <desc>Created with Sketch.</desc>
    <defs>
        <circle id="path-1" cx="22.5" cy="22.5" r="22.5"></circle>
        <polygon id="path-3" points="54.9612224 68.9453894 54.9612224 1.73366834e-05 1.38669175e-05 1.73366834e-05 1.38669175e-05 68.9453894"></polygon>
    </defs>
    <g id="Page-1" stroke="none" stroke-width="1" fill="none" fill-rule="evenodd">
        <g id="style-guide" transform="translate(-266.000000, -492.000000)">
            <g id="icon-award" transform="translate(266.000000, 492.000000)">
                <g id="Page-1">
                    <mask id="mask-2" fill="white">
                        <use xlink:href="#path-1"></use>
                    </mask>
                    <use id="Mask" fill="#F6A623" xlink:href="#path-1"></use>
                    <g mask="url(#mask-2)">
                        <g transform="translate(0.000000, 7.000000)">
                            <mask id="mask-4" fill="white">
                                <use xlink:href="#path-3"></use>
                            </mask>
                            <g id="Clip-2" stroke="none" fill="none"></g>
                            <path d="M21.2074954,24.5400958 C21.1297277,24.6782467 21.05196,24.8164796 20.9742333,24.9547126 C20.2685374,26.2095936 19.543061,27.4995351 18.7871342,28.7424423 C18.650025,28.2164518 18.5036411,27.6886571 18.3520043,27.1419174 C18.2480951,26.767282 18.1406567,26.3799346 18.0350649,25.9883635 C18.0239435,25.9471109 18.0130684,25.9053663 18.0021932,25.8635807 C17.8848645,25.4140264 17.738891,24.8544107 17.2104399,24.7146195 C17.1241772,24.6917789 17.0310611,24.6807071 16.9256746,24.6807071 C16.6040158,24.6807071 16.2297869,24.7881851 15.9290166,24.8744628 C15.8711936,24.8911115 15.8165304,24.906776 15.7666278,24.9203491 C14.9210731,25.1503136 14.0852856,25.3824924 13.3051461,25.6041736 C13.6174481,25.0259409 13.9624988,24.4425823 14.32101,23.8365472 C14.6687282,23.24876 15.0260493,22.6446522 15.3559978,22.0363207 C16.8119572,23.1016287 18.6384111,24.1582022 21.2074954,24.5400958 M30.389175,19.3761058 C28.5859078,21.2821291 26.091144,22.4016067 23.3644313,22.5283168 C23.2087728,22.5355749 23.0511033,22.5392245 22.8958962,22.5392245 C20.2960331,22.5392245 17.782761,21.5178345 16.0004644,19.7368811 C13.9610624,17.6990629 12.9855393,15.5310081 12.8374318,12.7071362 C12.6421301,8.98345868 14.4800748,6.52401164 15.5929944,5.3894027 C16.5865745,4.37646006 17.4604867,3.72663 18.5152139,3.21638609 C19.7927385,2.59837708 21.1499596,2.26290287 22.6643987,2.19081344 C22.8200983,2.18343227 22.9777267,2.17970068 23.1329338,2.17970068 C26.7278954,2.17970068 29.1562181,4.1434201 30.0333723,4.98766199 C31.4291695,6.33107604 33.109855,8.63826594 33.1904954,12.0003891 C33.2599734,14.8977446 32.3436686,17.3103622 30.389175,19.3761058 M30.6275259,22.0352956 C31.3445073,23.1986091 32.0331723,24.4130577 32.702385,25.6030664 C32.22437,25.4794728 31.7459036,25.342224 31.2506525,25.2001365 C30.9298966,25.1081179 30.5982655,25.0129828 30.262941,24.9207182 C30.2238724,24.9099745 30.1842704,24.8988617 30.144258,24.8876669 C29.8332692,24.8004871 29.4807906,24.7016614 29.1503086,24.7016614 C28.6186564,24.7016614 28.3434941,24.9616837 28.2062618,25.1797973 C28.0503981,25.4275175 27.9943396,25.7448259 27.9401279,26.0516365 C27.9174748,26.1798228 27.8960938,26.300874 27.8697882,26.3998227 C27.7138013,26.9865848 27.5346278,27.6295258 27.3613638,28.2513074 C27.313554,28.4229196 27.2666061,28.5913333 27.2208073,28.7561794 C26.8150199,28.0735032 26.4176453,27.378935 26.0296685,26.7008105 C25.6264665,25.9959907 25.2121841,25.2718979 24.788627,24.5612142 C27.0681035,24.1634101 28.9876735,23.3329054 30.6275259,22.0352956 M35.2470515,25.7196889 C35.1722796,25.6092994 35.1016525,25.5050608 35.0653336,25.4412957 C34.7737969,24.9292885 34.4910015,24.4296243 34.2128434,23.9381203 C33.5476524,22.7627509 32.9167695,21.6481122 32.2536304,20.5176039 C33.296949,19.2377089 34.0203324,18.0478232 34.5206312,16.791876 C35.1833189,15.1282012 35.4459234,13.3616 35.3234239,11.3911555 C35.0748955,7.39371857 32.9919107,4.75097246 31.2883258,3.23783249 C28.8693598,1.08933776 26.0792839,0 22.9956194,0 C22.7645324,0 22.5287669,0.00627399499 22.2948482,0.0186989655 C19.8989048,0.145942145 17.6260355,0.958280973 15.721978,2.36783851 C13.9719787,3.66331596 12.5891086,5.40313988 11.7228295,7.39929545 C10.684969,9.79083573 10.4140747,12.4720049 10.9599672,14.9488387 C11.2315181,16.1808791 11.6320937,17.2802635 12.1506135,18.2163599 C12.4984958,18.8444565 12.9038319,19.3912783 13.2957483,19.9201391 C13.4530484,20.1323478 13.6037824,20.335699 13.7495507,20.5419207 C13.2683347,21.3953481 12.7417303,22.290315 12.1868504,23.2334236 C11.7671099,23.9468137 11.333047,24.6845207 10.9227454,25.398936 C10.889217,25.4572883 10.8304501,25.5479126 10.7624085,25.6528893 C10.3171421,26.3397072 9.92469213,26.9990918 10.0123501,27.5165528 C10.1018548,28.0449216 10.4809262,28.3478777 11.0523446,28.3478777 C11.3809388,28.3478777 11.7314886,28.2546699 12.0407538,28.1723698 C12.573555,28.0306514 13.090064,27.8865545 13.5895831,27.7472144 C14.4488446,27.5074904 15.2666983,27.2793302 16.1107346,27.0774142 C16.2244519,27.5075724 16.3438736,27.9307595 16.4685892,28.3727686 C16.5876825,28.7948076 16.7108387,29.2311578 16.8319019,29.6856328 C16.8638298,29.8054948 16.8971119,29.9784603 16.9356059,30.178736 C17.1221253,31.1487859 17.4039768,32.6148094 18.4363792,32.6148094 C18.4494705,32.6148094 18.4624796,32.6145223 18.475776,32.6140302 C19.1985439,32.5853257 19.6757381,31.6488192 19.9915284,31.0290879 C20.045699,30.922799 20.0925238,30.8309855 20.1285145,30.7683275 C20.4709797,30.172011 20.806058,29.5811483 21.1301381,29.0097226 C21.7678744,27.8852013 22.3758169,26.8132093 23.0096546,25.7501567 C23.5540696,26.6839158 24.0823566,27.6156656 24.6360053,28.5921124 C25.0459787,29.3151801 25.4699051,30.0628517 25.9001514,30.8097851 C25.9343774,30.8692445 25.9782885,30.9554812 26.029135,31.0553731 C26.3453357,31.6765806 26.8231455,32.6153425 27.6178126,32.6153425 C27.6371827,32.6153425 27.6566349,32.6147684 27.6762102,32.6135792 C28.4390725,32.5664627 28.6105308,31.8700083 28.7356568,31.3614456 C28.7519491,31.2952201 28.7684465,31.2282565 28.7861751,31.1615389 C29.0882175,30.0253307 29.3933378,28.9316053 29.6883627,27.8738835 C29.7621086,27.6095966 29.8353621,27.3468679 29.9080821,27.0853695 C30.3130488,27.189772 30.7375908,27.2973731 31.180559,27.4096899 C32.0002595,27.6174288 32.8478661,27.8322619 33.6587023,28.0491863 C33.7612161,28.0766197 33.8795708,28.116601 34.0048609,28.1588787 C34.3083807,28.2612719 34.6524054,28.3773614 34.965323,28.3773614 L34.9654462,28.3773614 C35.0806819,28.3773614 35.1882435,28.3616559 35.2851351,28.3306549 C35.707461,28.1955795 35.8780575,27.9303905 35.9468378,27.731673 C36.1711536,27.0834832 35.6370391,26.2952562 35.2470515,25.7196889" id="Fill-1" stroke="none" fill="#FFFFFF" fill-rule="evenodd" mask="url(#mask-4)"></path>
                        </g>
                    </g>
                </g>
            </g>
        </g>
    </g>
</svg>