<?xml version="1.0" encoding="UTF-8" standalone="no"?>
<svg width="33px" height="34px" viewBox="0 0 33 34" version="1.1" xmlns="http://www.w3.org/2000/svg" xmlns:xlink="http://www.w3.org/1999/xlink">
    <!-- Generator: Sketch 40.3 (33839) - http://www.bohemiancoding.com/sketch -->
    <title>icon-twitter</title>
    <desc>Created with Sketch.</desc>
    <defs>
        <polyline id="path-1" points="0 0.473142857 32.1456404 0.473142857 32.1456404 33.0612245 0 33.0612245"></polyline>
    </defs>
    <g id="Page-1" stroke="none" stroke-width="1" fill="none" fill-rule="evenodd">
        <g id="style-guide" transform="translate(-230.000000, -565.000000)">
            <g id="Group" transform="translate(183.000000, 564.000000)">
                <g id="icon-twitter" transform="translate(47.831461, 1.451231)">
                    <path d="M31.4863635,16.7674041 C31.4863635,25.4301796 24.5580489,32.4531184 16.0136107,32.4531184 C7.46772303,32.4531184 0.541582584,25.4301796 0.541582584,16.7674041 C0.541582584,8.10462857 7.46772303,1.0816898 16.0136107,1.0816898 C24.5580489,1.0816898 31.4863635,8.10462857 31.4863635,16.7674041" id="Fill-1" fill="#FFFFFF"></path>
                    <g id="Group-5">
                        <mask id="mask-2" fill="white">
                            <use xlink:href="#path-1"></use>
                        </mask>
                        <g id="Clip-4"></g>
                        <path d="M23.2434084,13.0408163 C23.2506556,13.1995102 23.2535545,13.3626122 23.2535545,13.5271837 C23.2535545,18.4804898 19.5328466,24.1949388 12.7270096,24.1949388 C10.6369197,24.1949388 8.69322303,23.5777959 7.0568073,22.5080816 C7.34669494,22.5440816 7.6409309,22.562449 7.93879045,22.562449 C9.67376798,22.562449 11.2667006,21.9644082 12.534959,20.9564082 C10.9144871,20.925551 9.54984101,19.8411429 9.0787736,18.3519184 C9.30343652,18.3967347 9.53462191,18.4187755 9.77450393,18.4187755 C10.1093242,18.4187755 10.4383466,18.3739592 10.7478017,18.288 C9.05703202,17.944898 7.78007697,16.4299592 7.78007697,14.6130612 C7.78007697,14.5961633 7.78007697,14.58 7.78225112,14.5645714 C8.27940843,14.8466939 8.85266124,15.0127347 9.45925112,15.0325714 C8.46566124,14.3625306 7.81123989,13.2127347 7.81123989,11.9123265 C7.81123989,11.2253878 7.99459382,10.5803265 8.31129607,10.0263673 C10.1339646,12.2958367 12.8639815,13.7887347 15.9346163,13.9474286 C15.8722904,13.670449 15.8411275,13.3861224 15.8411275,13.0900408 C15.8411275,11.0211429 17.4971107,9.34089796 19.5393691,9.34089796 C20.6039815,9.34089796 21.5664084,9.79567347 22.2389478,10.5222857 C23.0825208,10.3577143 23.8760882,10.0462041 24.5899365,9.61273469 C24.3123691,10.4906939 23.7275208,11.2253878 22.9629421,11.6897143 C23.711577,11.6000816 24.4268747,11.3995102 25.0863691,11.0997551 C24.5935601,11.8520816 23.9637792,12.511102 23.2434084,13.0408163 M16.0715882,0.473142857 C7.21044775,0.473142857 0.000217415731,7.78334694 0.000217415731,16.7671837 C0.000217415731,25.7517551 7.21044775,33.0612245 16.0715882,33.0612245 C24.9334534,33.0612245 32.1458579,25.7517551 32.1458579,16.7671837 C32.1458579,7.78334694 24.9334534,0.473142857 16.0715882,0.473142857" id="Fill-3" fill="#25C2EC" mask="url(#mask-2)"></path>
                    </g>
                </g>
            </g>
        </g>
    </g>
</svg>