<?xml version="1.0" encoding="UTF-8" standalone="no"?>
<svg width="1186px" height="793px" viewBox="0 0 1186 793" version="1.1" xmlns="http://www.w3.org/2000/svg" xmlns:xlink="http://www.w3.org/1999/xlink">
    <!-- Generator: Sketch 40.3 (33839) - http://www.bohemiancoding.com/sketch -->
    <title>abstract-small</title>
    <desc>Created with Sketch.</desc>
    <defs></defs>
    <g id="Page-1" stroke="none" stroke-width="1" fill="none" fill-rule="evenodd">
        <g id="abstract-small" fill="#F67F12">
            <g id="abstract-graphic-1200x560">
                <g id="Group">
                    <path d="M1186,429.176 L1186,474.176 L436,455.5 L1186,429.176 Z M416.822,454.978 L253.405034,432.279 L220.933921,514.88 L2.99948704,534.113 L2.987,792.61 L137.658794,791 L281.213678,476.453 L416.822,454.978 Z" id="Shape"></path>
                    <path d="M252.67,338.418 L199.733,410.255 L3,357.252285 L3,502.221391 L189.24,484.447 L269.994,388.297 L415.415,455.125 L252.67,338.418 Z M417.216,456.584 L275.044,506.35 L196,791 L299.684,791 L315.546,523.545 L417.216,456.584 Z M183.2,0.831 L0.733,0.831 L414.715,454.402 L183.2,0.831 Z" id="Shape"></path>
                </g>
            </g>
        </g>
    </g>
</svg>