<?xml version="1.0" encoding="UTF-8" standalone="no"?>
<svg width="1400px" height="720px" viewBox="0 0 1400 720" version="1.1" xmlns="http://www.w3.org/2000/svg" xmlns:xlink="http://www.w3.org/1999/xlink">
    <!-- Generator: Sketch 40.3 (33839) - http://www.bohemiancoding.com/sketch -->
    <title>abstract-xlarge</title>
    <desc>Created with Sketch.</desc>
    <defs></defs>
    <g id="Page-1" stroke="none" stroke-width="1" fill="none" fill-rule="evenodd">
        <g id="abstract-xlarge" fill="#F67F12">
            <g id="abstract-graphic-1400x560">
                <g id="Group">
                    <path d="M1400,455.733412 L1400,503.59161 L550,484.431315 L1400,455.733412 Z M530.822,483.87616 L360.692,459.735421 L326.887,547.582866 L0,575.544815 L1,720 L291,720 L389.643,506.715155 L530.822,483.87616 Z" id="Shape"></path>
                    <path d="M366.67,359.912792 L313.733,436.312555 L0,349.776425 L0,544.615657 L303.24,515.216898 L383.994,412.959882 L529.415,484.032496 L366.67,359.912792 Z M531.216,485.584165 L389.044,538.511078 L334.954,720 L409.043,720 L429.546,556.798227 L531.216,485.584165 Z M297.2,0.883781388 L114.733,0.883781388 L528.715,483.263575 L297.2,0.883781388 Z" id="Shape"></path>
                </g>
            </g>
        </g>
    </g>
</svg>