<?xml version="1.0" encoding="UTF-8" standalone="no"?>
<svg width="358px" height="116px" viewBox="0 0 358 116" version="1.1" xmlns="http://www.w3.org/2000/svg" xmlns:xlink="http://www.w3.org/1999/xlink">
    <!-- Generator: Sketch 40.3 (33839) - http://www.bohemiancoding.com/sketch -->
    <title>awards-header</title>
    <desc>Created with Sketch.</desc>
    <defs>
        <polygon id="path-1" points="0 0.729466506 0 10.0403816 8.58135386 10.0403816 8.58135386 0.729466506 0 0.729466506"></polygon>
        <polygon id="path-3" points="0 0.729466506 0 10.0403816 8.58135386 10.0403816 8.58135386 0.729466506 0 0.729466506"></polygon>
    </defs>
    <g id="Page-1" stroke="none" stroke-width="1" fill="none" fill-rule="evenodd">
        <g id="main-page-vr-2" transform="translate(-332.000000, -4899.000000)">
            <g id="Call-for-Nominations" transform="translate(-1.000000, 4829.000000)">
                <g id="awards-header" transform="translate(1.000000, 70.000000)">
                    <text id="OPEN-EDUCATION" font-family="Helvetica-Bold, Helvetica" font-size="25" font-weight="bold" fill="#FFFFFF">
                        <tspan x="399.719727" y="40">OPEN EDUCATION</tspan>
                        <tspan x="425.842773" y="70">AWARDS 2018</tspan>
                    </text>
                    <text id="CALL-FOR-NOMINATIONS" font-family="Helvetica" font-size="20" font-weight="normal" fill="#FFFFFF">
                        <tspan x="389.763672" y="92">CALL FOR NOMINATIONS</tspan>
                    </text>
                    <g id="Page-1" transform="translate(332.000000, 0.000000)">
                        <path d="M38.2899036,90.3039546 C35.4944983,91.8634398 35.1474704,94.3742982 37.2714902,97.8382722 C39.2647206,101.019971 41.1289054,102.687487 42.8623009,102.861731 C41.627649,102.340741 41.257951,101.757023 41.7130981,101.086183 C42.515273,99.8525347 42.9041535,98.9203285 42.8623009,98.2947919 C42.5588695,97.6657705 41.7566946,96.3885608 40.4575199,94.4823296 C39.3501697,92.9245868 38.6369315,91.5149515 38.2899036,90.3039546" id="Fill-1" fill="#FFFFFF"></path>
                        <path d="M10.8565662,70.8820031 C10.1415842,70.557909 8.66802363,68.8468313 6.41321444,65.7505125 C4.72341545,63.4348075 2.77378151,62.6541937 0.585238951,63.4766261 C0.953193119,64.6893655 1.75536808,66.0763491 2.99001998,67.5905308 C4.41998405,69.4096399 5.33027824,70.6885921 5.72090257,71.4674635 C6.78291247,71.4239024 7.90944514,71.2496583 9.07957427,70.9464734 C9.88174923,70.7321531 10.488612,70.7077589 10.8565662,70.8820031" id="Fill-3" fill="#FFFFFF"></path>
                        <g id="Group-7" transform="translate(0.000000, 53.436245)">
                            <mask id="mask-2" fill="white">
                                <use xlink:href="#path-1"></use>
                            </mask>
                            <g id="Clip-6"></g>
                            <path d="M8.58135386,10.0403816 C8.45056447,9.99856295 8.234326,9.89053157 7.9518209,9.71628741 C7.69198597,9.58734673 7.4548212,9.4984822 7.23683887,9.45666361 C6.5654533,9.32598048 5.67608541,9.52113395 4.5722229,10.0403816 C1.58150538,4.15267126 0.0434220795,1.09991351 -0.000174385862,0.904760046 C2.12384541,0.296647914 3.85724087,1.27241523 5.22268217,3.80592537 C7.3240318,7.7908894 8.45056447,9.86613739 8.58135386,10.0403816" id="Fill-5" fill="#FFFFFF" mask="url(#mask-2)"></path>
                        </g>
                        <path d="M18.8519836,70.3204142 C16.4036061,70.3204142 15.1253577,71.8345959 14.9945683,74.8873537 C14.9509718,75.429253 14.973642,76.7482814 15.0590911,78.8078474 C15.1026875,80.431803 15.0381648,81.5783296 14.8655228,82.3153824 C18.1596717,79.5658095 19.5024428,75.5581937 18.8519836,70.3204142" id="Fill-8" fill="#FFFFFF"></path>
                        <path d="M12.0043739,73.1773215 L12.0043739,74.8866567 C11.4620339,73.4369453 11.3975111,71.4017734 11.8090618,68.7375802 C12.3723281,65.2980004 13.9557517,63.7385151 16.5767712,64.0417 C16.3169363,64.3640517 16.0135049,66.3155863 15.6246244,69.8649399 C15.3194492,72.3757983 14.1283937,73.4578546 12.0043739,73.1773215" id="Fill-10" fill="#FFFFFF"></path>
                        <path d="M12.567989,65.7499897 C10.508492,65.3614253 9.36103305,65.9451432 9.14479458,67.4610674 C9.23024365,67.1143215 9.33836289,66.1838577 9.46915228,64.6679335 C9.64179429,63.1537517 9.81618015,61.9410123 10.0324186,61.0541095 C10.8345936,58.0867314 12.4598698,56.8095217 14.8646508,57.1771769 C14.7356053,58.1076407 14.3240547,59.5155336 13.6509252,61.3764612 C13.0231361,63.0666296 12.655182,64.5180835 12.567989,65.7499897" id="Fill-12" fill="#FFFFFF"></path>
                        <path d="M7.99559175,58.324052 C10.33585,58.2369299 11.8966035,57.1984347 12.6987784,55.2277332 C13.0440624,54.4471193 13.3910903,52.650662 13.7171919,49.7721484 C11.680365,49.9655594 10.1405378,51.3298912 9.08027181,53.8215828 C8.14730745,55.8985732 7.80027959,57.9773061 7.99559175,60.0351297 L7.99559175,58.324052 Z" id="Fill-14" fill="#FFFFFF"></path>
                        <path d="M7.99559175,56.0506884 C7.54044465,55.4878797 6.71734339,53.3655858 5.52628795,49.641988 C4.68051652,46.8924151 3.22962616,45.4183095 1.14920283,45.2022467 C1.01841343,46.8924151 1.97056024,50.119417 4.00913096,54.9041618 C5.35190209,54.6863566 6.19767352,54.6427955 6.54470138,54.7734786 C6.63015046,54.8170397 7.10796772,55.2509077 7.99559175,56.0506884" id="Fill-16" fill="#FFFFFF"></path>
                        <path d="M12.0043739,42.8429808 C12.3078053,41.7609245 13.0227874,40.5690944 14.1719902,39.2936271 C15.4275684,37.8195215 16.2297434,36.716556 16.5767712,36.0021549 C14.7561828,35.32783 13.0437137,35.8697293 11.4411076,37.6470198 C10.1628592,39.0549126 9.2752352,40.6997775 8.77649164,42.6042662 C8.86194071,42.4317645 8.97005995,42.3219907 9.14444581,42.2801721 C9.90302431,42.8220715 10.856915,43.0172249 12.0043739,42.8429808" id="Fill-18" fill="#FFFFFF"></path>
                        <path d="M16.0140281,28.5749974 C20.8235901,24.482002 23.1219958,22.5775133 22.860417,22.8789557 C20.1086081,21.5146239 17.1841572,23.0305481 14.1062467,27.4267284 L14.3015589,27.4267284 C14.5404675,27.4702894 14.7776323,27.7316556 14.9956146,28.2055998 C15.2118531,28.5749974 15.5362108,28.7039381 16.0140281,28.5749974" id="Fill-20" fill="#FFFFFF"></path>
                        <path d="M13.7166687,28.011666 C13.7724723,27.6649201 13.939883,27.4697667 14.2166687,27.4262056 C14.1608651,27.5150701 13.9934544,27.7084812 13.7166687,28.011666" id="Fill-22" fill="#FFFFFF"></path>
                        <path d="M12.0043739,31.4319047 C11.6573461,30.8063682 11.8962547,28.9419556 12.6984297,25.8473793 C13.4134117,23.183186 13.0018611,21.4302897 11.4411076,20.5852055 C10.2500522,21.9495373 9.49147367,25.1747968 9.14444581,30.2853781 C9.53332628,30.2400746 10.1419329,30.5450019 10.9859605,31.1740233 C11.6154935,31.693271 11.9607775,31.7786506 12.0043739,31.4319047" id="Fill-24" fill="#FFFFFF"></path>
                        <path d="M30.4238806,9.30428986 C30.5755963,9.30428986 30.7709084,9.54300436 30.9871469,10.062252 C31.2469818,10.6041513 31.5713395,10.8846844 32.0055603,10.8846844 C32.0491568,10.8846844 34.9090849,10.1267223 40.5644184,8.58988879 C38.1160409,6.09993969 34.7364429,6.33865419 30.4238806,9.30428986" id="Fill-26" fill="#FFFFFF"></path>
                        <path d="M30.4238806,9.30428986 C29.9896598,9.62959106 29.7507511,9.80428986 29.7088985,9.80428986 C30.0123299,9.45489227 30.2494947,9.30428986 30.4238806,9.30428986" id="Fill-28" fill="#FFFFFF"></path>
                        <path d="M17.1405607,20.5850313 C16.5982207,20.6721533 16.1657438,21.1042789 15.8832387,21.9267113 C15.5798073,22.8153566 15.2327794,23.3119524 14.8648252,23.444378 C13.5865769,22.2943665 13.412191,20.4979092 14.3451554,18.0515211 C15.2118531,15.7567255 16.3174595,14.3279233 17.7247534,13.742463 C18.3525425,14.5439861 18.4850757,15.6051331 18.0927075,16.9049945 C17.4230658,19.3513826 17.0969643,20.3898778 17.1405607,20.0222226 C18.0281848,20.2591947 19.4581488,19.6545674 21.4095266,18.1822042 C23.3818307,16.6436283 25.3959874,16.1243807 27.4328143,16.5791579 C26.5887867,18.398267 24.9844368,19.8061599 22.600582,20.7801847 C20.1940572,21.7542096 18.3752126,21.6879968 17.1405607,20.5850313" id="Fill-30" fill="#FFFFFF"></path>
                        <path d="M20.5857278,18.3118419 C20.3677455,18.1829012 20.1096544,17.7699426 19.806223,17.0991025 C19.5673144,16.5136421 19.2412128,16.1459869 18.8523323,16.0170463 C19.1993602,14.414 19.9352685,12.7464833 21.0844714,11.0144963 C22.2336742,9.28250934 23.2067473,8.28757516 24.0089223,8.02795136 C25.1145286,8.3729548 25.2662443,9.218039 24.5076658,10.5597191 C23.4020595,12.4659502 22.8614633,13.5270972 22.8614633,13.7431599 C24.2914274,14.457561 25.3098408,14.2188465 25.9167036,13.0287589 C26.5008962,11.8595805 26.2410613,10.756615 25.1354549,9.73728661 C25.5260793,9.32607038 26.0457491,8.65523035 26.7398049,7.76832755 C27.4547869,6.83612128 27.9744568,6.18793299 28.3232285,5.79588362 C29.6433294,4.32526288 31.0523672,3.351238 32.5695242,2.89646073 C32.8729556,4.32526288 32.0707806,5.94747604 30.1647432,7.76832755 C27.8663375,9.89062147 26.5880892,11.4919253 26.2846578,12.5966333 C26.6316856,12.5530723 27.1513555,12.3997374 27.8663375,12.1401136 C28.7557054,11.8595805 29.3834945,11.6644271 29.7078522,11.5790474 C31.2476794,11.1887405 32.374212,11.3403329 33.1554607,12.0320822 C32.6776434,12.9416368 31.5075143,13.6995989 29.6659996,14.2414982 C27.5855763,14.8687772 26.2637315,15.4751469 25.7213914,16.0170463 C25.2435742,15.9299242 24.7465745,15.6703004 24.2042344,15.2590842 C23.555519,14.7607458 23.1212982,14.4366517 22.8614633,14.3059686 C21.9302428,14.93499 21.3443063,15.4106766 21.0844714,15.6929521 C20.5857278,16.3847015 20.4130858,17.2506949 20.5857278,18.3118419" id="Fill-32" fill="#FFFFFF"></path>
                        <path d="M58.8543563,107.993919 C57.4243923,108.297104 55.5828776,108.103693 53.3280684,107.432853 C51.2267188,106.782922 49.817681,106.608678 49.1462954,106.847392 C49.817681,107.279518 51.0523329,107.690734 52.8293248,108.058389 C54.6935097,108.405135 55.9281616,108.751881 56.5786209,109.140446 C56.5350244,109.185749 54.9306745,109.854847 51.8109114,111.175617 C49.8612775,112.020702 48.6039554,113.060939 47.9970926,114.273679 C48.5185063,114.186557 49.8403512,114.575121 52.0062236,115.420205 C52.4195181,113.9461 53.4588578,112.670632 55.1050603,111.609485 C55.5392811,111.349862 56.2542632,110.959555 57.2726766,110.396746 C58.2474935,109.90015 58.9624756,109.487192 59.438549,109.140446 C58.3346865,109.185749 58.1393743,108.7937 58.8543563,107.993919" id="Fill-34" fill="#FFFFFF"></path>
                        <path d="M32.5688267,109.703951 C32.3525882,106.759225 34.4120852,105.025495 38.7229037,104.572461 C39.6977207,104.485339 41.4537863,104.420868 44.0120269,104.377307 C45.9825871,104.335489 47.3253583,104.204805 47.9984877,104.00791 C47.9548912,104.291928 47.6723861,104.464429 47.1091198,104.509733 C46.9800743,104.549809 46.7620919,104.572461 46.4150641,104.572461 C46.1133765,104.5289 45.8953942,104.5289 45.7210083,104.572461 C46.3505413,107.149532 44.9641737,108.686365 41.5183091,109.205613 C40.4789693,109.378115 38.8955457,109.487889 36.8377926,109.508798 C34.7137728,109.552359 33.2838087,109.616829 32.5688267,109.703951" id="Fill-36" fill="#FFFFFF"></path>
                        <path d="M35.9925443,104.571938 C35.3211587,104.788001 31.1393858,104.59459 23.4245552,104.009129 C24.2685828,101.346678 26.3280798,100.111287 29.5995586,100.329093 C35.0177273,100.653187 38.0956378,100.742051 38.8542163,100.567807 C37.0336279,101.303117 36.0797372,102.623888 35.9925443,104.571938" id="Fill-38" fill="#FFFFFF"></path>
                        <path d="M30.8572294,96.5830173 C30.6392471,96.6265783 27.9537048,95.9975569 22.7953711,94.7412564 C19.5448186,93.9414757 17.4661391,94.9381524 16.5767712,97.7295439 C24.3561245,99.2472105 27.9746311,100.005173 27.434035,100.005173 C27.8229154,98.3603077 28.9494481,97.2102962 30.8572294,96.5830173" id="Fill-40" fill="#FFFFFF"></path>
                        <path d="M44.011155,93.1627786 C44.5953476,93.5304338 47.0646514,95.9977311 51.4225541,100.568156 C51.5080032,101.216344 51.312691,102.192111 50.7930211,103.49023 C50.4895897,104.162813 50.9011404,104.723879 52.0067467,105.135095 C49.5356991,104.335314 47.390753,102.970983 45.528312,101.02119 C42.9927415,98.4023006 42.4713278,95.7816684 44.011155,93.1627786" id="Fill-42" fill="#FFFFFF"></path>
                        <path d="M21.1493429,93.7241933 C21.1493429,92.5776667 21.5835637,91.9277359 22.4711877,91.7552342 C24.0528675,91.4503069 24.7469232,91.3649273 24.5725374,91.4311401 C24.5725374,91.4311401 22.0596371,90.4780245 17.0094226,88.5282323 C13.846063,87.2963261 11.5929977,87.8783016 10.2920792,90.3037803 C11.0942541,90.4780245 12.7422005,91.1924256 15.2324306,92.448726 C17.1402119,93.4663119 19.112516,93.8984374 21.1493429,93.7241933" id="Fill-44" fill="#FFFFFF"></path>
                        <path id="Fill-46" fill="#FFFFFF"></path>
                        <path d="M31.442294,86.2984297 C31.6376062,86.8612384 32.1136796,87.7707929 32.8286616,89.0270933 C33.6308366,90.4768048 34.1731766,91.4943907 34.476608,92.1443214 C35.5386179,94.6342705 35.0817269,96.3000447 33.1547632,97.1451289 C33.2628824,97.2775545 33.3919279,97.516269 33.5227173,97.8386207 C33.6535067,98.1853666 33.761626,98.4240811 33.847075,98.5530218 C31.984634,97.232251 30.6191927,95.3922326 29.7734213,93.0329667 C28.7340816,90.110892 29.2746777,87.857915 31.442294,86.2984297" id="Fill-48" fill="#FFFFFF"></path>
                        <path d="M28.5820171,90.3039546 C28.5384206,90.889415 27.9960806,91.5811643 26.979411,92.3826874 C26.2208325,92.9890571 26.1772361,93.813232 26.8695479,94.8726365 C22.8394907,88.6590897 22.4488663,84.2629094 25.722089,81.7293993 C26.6533095,82.2068283 27.2601723,83.484038 27.5636037,85.6063319 C27.8461088,88.1398421 28.1913928,89.6975849 28.5820171,90.3039546" id="Fill-50" fill="#FFFFFF"></path>
                        <path d="M17.1405607,85.1515546 C16.5110278,84.9982198 16.0994771,85.216025 15.8832387,85.8659557 C15.6670002,86.5803568 15.3199723,86.9271027 14.8648252,86.8835416 C12.6989528,86.4932347 10.747575,85.7126209 9.01417957,84.5225332 C7.1081421,83.2662328 6.19784791,81.945462 6.28329698,80.6055244 C8.53636231,79.6715757 10.7702452,80.0392309 13.0233105,81.7293993 C15.8187159,83.8952542 17.7683498,85.0417808 18.851286,85.1515546 C18.7013142,85.5401191 18.4414792,85.6708023 18.0927075,85.5401191 C17.3794693,85.2804953 17.0533678,85.1515546 17.1405607,85.1515546" id="Fill-52" fill="#FFFFFF"></path>
                        <path d="M22.2980226,76.5993026 C23.5989411,80.1068376 23.0339309,84.2852127 20.5855534,89.1570795 C19.3927541,85.1076451 18.7667089,82.5950443 18.6777721,81.6645804 C18.4615336,78.7198541 19.6752592,77.0105188 22.2980226,76.5993026" id="Fill-54" fill="#FFFFFF"></path>
                        <path d="M14.3017333,78.3095091 C12.3520993,79.7365688 9.94557446,79.5658095 7.10831649,77.7467004 C4.48555313,76.0147134 3.07651537,74.1084823 2.8602769,72.0297494 C4.94070023,71.3153483 6.9984534,71.9861884 9.01435396,74.0649212 C11.5272542,76.6001738 13.2833198,78.0045818 14.3017333,78.3095091" id="Fill-56" fill="#FFFFFF"></path>
                        <path d="M10.2927767,50.8982884 C10.0747944,50.8547274 9.77310684,50.7885146 9.33888604,50.6595739 C8.94826171,50.5288908 8.69017064,50.4417687 8.51578478,50.3999501 C7.97344475,50.3563891 7.60549058,50.7240443 7.43284858,51.4837488 C8.06063768,48.9920573 8.71109694,47.1956 9.33888604,46.090892 C10.7043273,43.7507928 12.5249157,42.6931308 14.865174,42.8429808 C14.7343846,43.3639708 13.2172276,46.0490734 10.2927767,50.8982884" id="Fill-58" fill="#FFFFFF"></path>
                        <path d="M7.75790382,47.5426943 C7.41087596,47.0426136 6.84760963,46.7394287 6.04543466,46.6540491 C5.15781063,46.566927 4.4637549,46.2654846 4.0086078,45.7009335 C3.96501133,44.7269086 3.76969917,43.3416675 3.44534147,41.5225585 C3.0983136,39.8341325 2.90300144,38.1875252 2.85940497,36.5635696 C5.02702123,36.5200085 6.3052696,37.9069921 6.73949039,40.6983836 C7.32368303,45.1398673 7.67071089,47.4120112 7.75790382,47.5426943" id="Fill-60" fill="#FFFFFF"></path>
                        <path d="M18.8519836,29.1587153 C17.5946615,32.6226893 14.7347334,34.8965757 10.2931255,36.0030261 C10.6401533,34.5289205 11.5923001,32.9258742 13.2175764,31.2374482 C15.1689542,29.1813671 17.033139,28.466966 18.8519836,29.1587153" id="Fill-62" fill="#FFFFFF"></path>
                        <path d="M9.14427142,40.0062858 C8.96988556,39.8773451 8.84084002,39.6612823 8.71005063,39.3580975 C8.49381216,38.9468812 8.34209646,38.685515 8.25664739,38.5983929 C7.88694936,38.1017971 7.21556379,37.9937657 6.28434329,38.2760412 C5.87279266,35.3731334 5.87279266,31.9300688 6.28434329,28.0113175 C8.23397723,28.3354117 9.18612403,30.0255801 9.14427142,33.012125 C9.10241882,37.4971698 9.10241882,39.833784 9.14427142,40.0062858" id="Fill-64" fill="#FFFFFF"></path>
                        <path d="M37.141224,5.16947585 C37.3574624,5.12591481 38.2904268,4.88720031 39.9366293,4.47598408 C41.2148777,4.12923819 42.2559613,3.91317543 43.0563924,3.78423475 C45.5919628,3.35036678 47.4334775,3.63264233 48.5826803,4.6066672 C47.846772,5.4517514 46.329615,5.90478622 44.010283,5.9919083 C40.5208219,6.16441003 38.6357108,6.27244141 38.2904268,6.31774489 C38.4630688,5.64516242 38.0724445,5.25659793 37.141224,5.16947585" id="Fill-66" fill="#FFFFFF"></path>
                        <path d="M49.7093874,1.74749472 C49.3850297,0.233312935 48.0631848,-0.308586414 45.7874494,0.167100153 C43.5326402,0.621877421 42.3642549,1.53143196 42.2979883,2.89576376 C43.0147142,3.26341894 44.1185767,3.17629686 45.65666,2.63613995 C47.4336519,1.96529992 48.7781669,1.66037264 49.7093874,1.74749472" id="Fill-68" fill="#FFFFFF"></path>
                        <path d="M40.565116,0.0374624952 C39.8501339,3.0257499 37.1837741,5.12539208 32.5695242,6.31722216 C33.978562,3.52408821 36.6431779,1.4227036 40.565116,0.0374624952" id="Fill-70" fill="#FFFFFF"></path>
                    </g>
                    <g id="Page-1" transform="translate(660.000000, 58.000000) scale(-1, 1) translate(-660.000000, -58.000000) translate(630.000000, 0.000000)">
                        <path d="M38.2899036,90.3039546 C35.4944983,91.8634398 35.1474704,94.3742982 37.2714902,97.8382722 C39.2647206,101.019971 41.1289054,102.687487 42.8623009,102.861731 C41.627649,102.340741 41.257951,101.757023 41.7130981,101.086183 C42.515273,99.8525347 42.9041535,98.9203285 42.8623009,98.2947919 C42.5588695,97.6657705 41.7566946,96.3885608 40.4575199,94.4823296 C39.3501697,92.9245868 38.6369315,91.5149515 38.2899036,90.3039546" id="Fill-1" fill="#FFFFFF"></path>
                        <path d="M10.8565662,70.8820031 C10.1415842,70.557909 8.66802363,68.8468313 6.41321444,65.7505125 C4.72341545,63.4348075 2.77378151,62.6541937 0.585238951,63.4766261 C0.953193119,64.6893655 1.75536808,66.0763491 2.99001998,67.5905308 C4.41998405,69.4096399 5.33027824,70.6885921 5.72090257,71.4674635 C6.78291247,71.4239024 7.90944514,71.2496583 9.07957427,70.9464734 C9.88174923,70.7321531 10.488612,70.7077589 10.8565662,70.8820031" id="Fill-3" fill="#FFFFFF"></path>
                        <g id="Group-7" transform="translate(0.000000, 53.436245)">
                            <mask id="mask-4" fill="white">
                                <use xlink:href="#path-3"></use>
                            </mask>
                            <g id="Clip-6"></g>
                            <path d="M8.58135386,10.0403816 C8.45056447,9.99856295 8.234326,9.89053157 7.9518209,9.71628741 C7.69198597,9.58734673 7.4548212,9.4984822 7.23683887,9.45666361 C6.5654533,9.32598048 5.67608541,9.52113395 4.5722229,10.0403816 C1.58150538,4.15267126 0.0434220795,1.09991351 -0.000174385862,0.904760046 C2.12384541,0.296647914 3.85724087,1.27241523 5.22268217,3.80592537 C7.3240318,7.7908894 8.45056447,9.86613739 8.58135386,10.0403816" id="Fill-5" fill="#FFFFFF" mask="url(#mask-4)"></path>
                        </g>
                        <path d="M18.8519836,70.3204142 C16.4036061,70.3204142 15.1253577,71.8345959 14.9945683,74.8873537 C14.9509718,75.429253 14.973642,76.7482814 15.0590911,78.8078474 C15.1026875,80.431803 15.0381648,81.5783296 14.8655228,82.3153824 C18.1596717,79.5658095 19.5024428,75.5581937 18.8519836,70.3204142" id="Fill-8" fill="#FFFFFF"></path>
                        <path d="M12.0043739,73.1773215 L12.0043739,74.8866567 C11.4620339,73.4369453 11.3975111,71.4017734 11.8090618,68.7375802 C12.3723281,65.2980004 13.9557517,63.7385151 16.5767712,64.0417 C16.3169363,64.3640517 16.0135049,66.3155863 15.6246244,69.8649399 C15.3194492,72.3757983 14.1283937,73.4578546 12.0043739,73.1773215" id="Fill-10" fill="#FFFFFF"></path>
                        <path d="M12.567989,65.7499897 C10.508492,65.3614253 9.36103305,65.9451432 9.14479458,67.4610674 C9.23024365,67.1143215 9.33836289,66.1838577 9.46915228,64.6679335 C9.64179429,63.1537517 9.81618015,61.9410123 10.0324186,61.0541095 C10.8345936,58.0867314 12.4598698,56.8095217 14.8646508,57.1771769 C14.7356053,58.1076407 14.3240547,59.5155336 13.6509252,61.3764612 C13.0231361,63.0666296 12.655182,64.5180835 12.567989,65.7499897" id="Fill-12" fill="#FFFFFF"></path>
                        <path d="M7.99559175,58.324052 C10.33585,58.2369299 11.8966035,57.1984347 12.6987784,55.2277332 C13.0440624,54.4471193 13.3910903,52.650662 13.7171919,49.7721484 C11.680365,49.9655594 10.1405378,51.3298912 9.08027181,53.8215828 C8.14730745,55.8985732 7.80027959,57.9773061 7.99559175,60.0351297 L7.99559175,58.324052 Z" id="Fill-14" fill="#FFFFFF"></path>
                        <path d="M7.99559175,56.0506884 C7.54044465,55.4878797 6.71734339,53.3655858 5.52628795,49.641988 C4.68051652,46.8924151 3.22962616,45.4183095 1.14920283,45.2022467 C1.01841343,46.8924151 1.97056024,50.119417 4.00913096,54.9041618 C5.35190209,54.6863566 6.19767352,54.6427955 6.54470138,54.7734786 C6.63015046,54.8170397 7.10796772,55.2509077 7.99559175,56.0506884" id="Fill-16" fill="#FFFFFF"></path>
                        <path d="M12.0043739,42.8429808 C12.3078053,41.7609245 13.0227874,40.5690944 14.1719902,39.2936271 C15.4275684,37.8195215 16.2297434,36.716556 16.5767712,36.0021549 C14.7561828,35.32783 13.0437137,35.8697293 11.4411076,37.6470198 C10.1628592,39.0549126 9.2752352,40.6997775 8.77649164,42.6042662 C8.86194071,42.4317645 8.97005995,42.3219907 9.14444581,42.2801721 C9.90302431,42.8220715 10.856915,43.0172249 12.0043739,42.8429808" id="Fill-18" fill="#FFFFFF"></path>
                        <path d="M16.0140281,28.5749974 C20.8235901,24.482002 23.1219958,22.5775133 22.860417,22.8789557 C20.1086081,21.5146239 17.1841572,23.0305481 14.1062467,27.4267284 L14.3015589,27.4267284 C14.5404675,27.4702894 14.7776323,27.7316556 14.9956146,28.2055998 C15.2118531,28.5749974 15.5362108,28.7039381 16.0140281,28.5749974" id="Fill-20" fill="#FFFFFF"></path>
                        <path d="M13.7166687,28.011666 C13.7724723,27.6649201 13.939883,27.4697667 14.2166687,27.4262056 C14.1608651,27.5150701 13.9934544,27.7084812 13.7166687,28.011666" id="Fill-22" fill="#FFFFFF"></path>
                        <path d="M12.0043739,31.4319047 C11.6573461,30.8063682 11.8962547,28.9419556 12.6984297,25.8473793 C13.4134117,23.183186 13.0018611,21.4302897 11.4411076,20.5852055 C10.2500522,21.9495373 9.49147367,25.1747968 9.14444581,30.2853781 C9.53332628,30.2400746 10.1419329,30.5450019 10.9859605,31.1740233 C11.6154935,31.693271 11.9607775,31.7786506 12.0043739,31.4319047" id="Fill-24" fill="#FFFFFF"></path>
                        <path d="M30.4238806,9.30428986 C30.5755963,9.30428986 30.7709084,9.54300436 30.9871469,10.062252 C31.2469818,10.6041513 31.5713395,10.8846844 32.0055603,10.8846844 C32.0491568,10.8846844 34.9090849,10.1267223 40.5644184,8.58988879 C38.1160409,6.09993969 34.7364429,6.33865419 30.4238806,9.30428986" id="Fill-26" fill="#FFFFFF"></path>
                        <path d="M30.4238806,9.30428986 C29.9896598,9.62959106 29.7507511,9.80428986 29.7088985,9.80428986 C30.0123299,9.45489227 30.2494947,9.30428986 30.4238806,9.30428986" id="Fill-28" fill="#FFFFFF"></path>
                        <path d="M17.1405607,20.5850313 C16.5982207,20.6721533 16.1657438,21.1042789 15.8832387,21.9267113 C15.5798073,22.8153566 15.2327794,23.3119524 14.8648252,23.444378 C13.5865769,22.2943665 13.412191,20.4979092 14.3451554,18.0515211 C15.2118531,15.7567255 16.3174595,14.3279233 17.7247534,13.742463 C18.3525425,14.5439861 18.4850757,15.6051331 18.0927075,16.9049945 C17.4230658,19.3513826 17.0969643,20.3898778 17.1405607,20.0222226 C18.0281848,20.2591947 19.4581488,19.6545674 21.4095266,18.1822042 C23.3818307,16.6436283 25.3959874,16.1243807 27.4328143,16.5791579 C26.5887867,18.398267 24.9844368,19.8061599 22.600582,20.7801847 C20.1940572,21.7542096 18.3752126,21.6879968 17.1405607,20.5850313" id="Fill-30" fill="#FFFFFF"></path>
                        <path d="M20.5857278,18.3118419 C20.3677455,18.1829012 20.1096544,17.7699426 19.806223,17.0991025 C19.5673144,16.5136421 19.2412128,16.1459869 18.8523323,16.0170463 C19.1993602,14.414 19.9352685,12.7464833 21.0844714,11.0144963 C22.2336742,9.28250934 23.2067473,8.28757516 24.0089223,8.02795136 C25.1145286,8.3729548 25.2662443,9.218039 24.5076658,10.5597191 C23.4020595,12.4659502 22.8614633,13.5270972 22.8614633,13.7431599 C24.2914274,14.457561 25.3098408,14.2188465 25.9167036,13.0287589 C26.5008962,11.8595805 26.2410613,10.756615 25.1354549,9.73728661 C25.5260793,9.32607038 26.0457491,8.65523035 26.7398049,7.76832755 C27.4547869,6.83612128 27.9744568,6.18793299 28.3232285,5.79588362 C29.6433294,4.32526288 31.0523672,3.351238 32.5695242,2.89646073 C32.8729556,4.32526288 32.0707806,5.94747604 30.1647432,7.76832755 C27.8663375,9.89062147 26.5880892,11.4919253 26.2846578,12.5966333 C26.6316856,12.5530723 27.1513555,12.3997374 27.8663375,12.1401136 C28.7557054,11.8595805 29.3834945,11.6644271 29.7078522,11.5790474 C31.2476794,11.1887405 32.374212,11.3403329 33.1554607,12.0320822 C32.6776434,12.9416368 31.5075143,13.6995989 29.6659996,14.2414982 C27.5855763,14.8687772 26.2637315,15.4751469 25.7213914,16.0170463 C25.2435742,15.9299242 24.7465745,15.6703004 24.2042344,15.2590842 C23.555519,14.7607458 23.1212982,14.4366517 22.8614633,14.3059686 C21.9302428,14.93499 21.3443063,15.4106766 21.0844714,15.6929521 C20.5857278,16.3847015 20.4130858,17.2506949 20.5857278,18.3118419" id="Fill-32" fill="#FFFFFF"></path>
                        <path d="M58.8543563,107.993919 C57.4243923,108.297104 55.5828776,108.103693 53.3280684,107.432853 C51.2267188,106.782922 49.817681,106.608678 49.1462954,106.847392 C49.817681,107.279518 51.0523329,107.690734 52.8293248,108.058389 C54.6935097,108.405135 55.9281616,108.751881 56.5786209,109.140446 C56.5350244,109.185749 54.9306745,109.854847 51.8109114,111.175617 C49.8612775,112.020702 48.6039554,113.060939 47.9970926,114.273679 C48.5185063,114.186557 49.8403512,114.575121 52.0062236,115.420205 C52.4195181,113.9461 53.4588578,112.670632 55.1050603,111.609485 C55.5392811,111.349862 56.2542632,110.959555 57.2726766,110.396746 C58.2474935,109.90015 58.9624756,109.487192 59.438549,109.140446 C58.3346865,109.185749 58.1393743,108.7937 58.8543563,107.993919" id="Fill-34" fill="#FFFFFF"></path>
                        <path d="M32.5688267,109.703951 C32.3525882,106.759225 34.4120852,105.025495 38.7229037,104.572461 C39.6977207,104.485339 41.4537863,104.420868 44.0120269,104.377307 C45.9825871,104.335489 47.3253583,104.204805 47.9984877,104.00791 C47.9548912,104.291928 47.6723861,104.464429 47.1091198,104.509733 C46.9800743,104.549809 46.7620919,104.572461 46.4150641,104.572461 C46.1133765,104.5289 45.8953942,104.5289 45.7210083,104.572461 C46.3505413,107.149532 44.9641737,108.686365 41.5183091,109.205613 C40.4789693,109.378115 38.8955457,109.487889 36.8377926,109.508798 C34.7137728,109.552359 33.2838087,109.616829 32.5688267,109.703951" id="Fill-36" fill="#FFFFFF"></path>
                        <path d="M35.9925443,104.571938 C35.3211587,104.788001 31.1393858,104.59459 23.4245552,104.009129 C24.2685828,101.346678 26.3280798,100.111287 29.5995586,100.329093 C35.0177273,100.653187 38.0956378,100.742051 38.8542163,100.567807 C37.0336279,101.303117 36.0797372,102.623888 35.9925443,104.571938" id="Fill-38" fill="#FFFFFF"></path>
                        <path d="M30.8572294,96.5830173 C30.6392471,96.6265783 27.9537048,95.9975569 22.7953711,94.7412564 C19.5448186,93.9414757 17.4661391,94.9381524 16.5767712,97.7295439 C24.3561245,99.2472105 27.9746311,100.005173 27.434035,100.005173 C27.8229154,98.3603077 28.9494481,97.2102962 30.8572294,96.5830173" id="Fill-40" fill="#FFFFFF"></path>
                        <path d="M44.011155,93.1627786 C44.5953476,93.5304338 47.0646514,95.9977311 51.4225541,100.568156 C51.5080032,101.216344 51.312691,102.192111 50.7930211,103.49023 C50.4895897,104.162813 50.9011404,104.723879 52.0067467,105.135095 C49.5356991,104.335314 47.390753,102.970983 45.528312,101.02119 C42.9927415,98.4023006 42.4713278,95.7816684 44.011155,93.1627786" id="Fill-42" fill="#FFFFFF"></path>
                        <path d="M21.1493429,93.7241933 C21.1493429,92.5776667 21.5835637,91.9277359 22.4711877,91.7552342 C24.0528675,91.4503069 24.7469232,91.3649273 24.5725374,91.4311401 C24.5725374,91.4311401 22.0596371,90.4780245 17.0094226,88.5282323 C13.846063,87.2963261 11.5929977,87.8783016 10.2920792,90.3037803 C11.0942541,90.4780245 12.7422005,91.1924256 15.2324306,92.448726 C17.1402119,93.4663119 19.112516,93.8984374 21.1493429,93.7241933" id="Fill-44" fill="#FFFFFF"></path>
                        <path id="Fill-46" fill="#FFFFFF"></path>
                        <path d="M31.442294,86.2984297 C31.6376062,86.8612384 32.1136796,87.7707929 32.8286616,89.0270933 C33.6308366,90.4768048 34.1731766,91.4943907 34.476608,92.1443214 C35.5386179,94.6342705 35.0817269,96.3000447 33.1547632,97.1451289 C33.2628824,97.2775545 33.3919279,97.516269 33.5227173,97.8386207 C33.6535067,98.1853666 33.761626,98.4240811 33.847075,98.5530218 C31.984634,97.232251 30.6191927,95.3922326 29.7734213,93.0329667 C28.7340816,90.110892 29.2746777,87.857915 31.442294,86.2984297" id="Fill-48" fill="#FFFFFF"></path>
                        <path d="M28.5820171,90.3039546 C28.5384206,90.889415 27.9960806,91.5811643 26.979411,92.3826874 C26.2208325,92.9890571 26.1772361,93.813232 26.8695479,94.8726365 C22.8394907,88.6590897 22.4488663,84.2629094 25.722089,81.7293993 C26.6533095,82.2068283 27.2601723,83.484038 27.5636037,85.6063319 C27.8461088,88.1398421 28.1913928,89.6975849 28.5820171,90.3039546" id="Fill-50" fill="#FFFFFF"></path>
                        <path d="M17.1405607,85.1515546 C16.5110278,84.9982198 16.0994771,85.216025 15.8832387,85.8659557 C15.6670002,86.5803568 15.3199723,86.9271027 14.8648252,86.8835416 C12.6989528,86.4932347 10.747575,85.7126209 9.01417957,84.5225332 C7.1081421,83.2662328 6.19784791,81.945462 6.28329698,80.6055244 C8.53636231,79.6715757 10.7702452,80.0392309 13.0233105,81.7293993 C15.8187159,83.8952542 17.7683498,85.0417808 18.851286,85.1515546 C18.7013142,85.5401191 18.4414792,85.6708023 18.0927075,85.5401191 C17.3794693,85.2804953 17.0533678,85.1515546 17.1405607,85.1515546" id="Fill-52" fill="#FFFFFF"></path>
                        <path d="M22.2980226,76.5993026 C23.5989411,80.1068376 23.0339309,84.2852127 20.5855534,89.1570795 C19.3927541,85.1076451 18.7667089,82.5950443 18.6777721,81.6645804 C18.4615336,78.7198541 19.6752592,77.0105188 22.2980226,76.5993026" id="Fill-54" fill="#FFFFFF"></path>
                        <path d="M14.3017333,78.3095091 C12.3520993,79.7365688 9.94557446,79.5658095 7.10831649,77.7467004 C4.48555313,76.0147134 3.07651537,74.1084823 2.8602769,72.0297494 C4.94070023,71.3153483 6.9984534,71.9861884 9.01435396,74.0649212 C11.5272542,76.6001738 13.2833198,78.0045818 14.3017333,78.3095091" id="Fill-56" fill="#FFFFFF"></path>
                        <path d="M10.2927767,50.8982884 C10.0747944,50.8547274 9.77310684,50.7885146 9.33888604,50.6595739 C8.94826171,50.5288908 8.69017064,50.4417687 8.51578478,50.3999501 C7.97344475,50.3563891 7.60549058,50.7240443 7.43284858,51.4837488 C8.06063768,48.9920573 8.71109694,47.1956 9.33888604,46.090892 C10.7043273,43.7507928 12.5249157,42.6931308 14.865174,42.8429808 C14.7343846,43.3639708 13.2172276,46.0490734 10.2927767,50.8982884" id="Fill-58" fill="#FFFFFF"></path>
                        <path d="M7.75790382,47.5426943 C7.41087596,47.0426136 6.84760963,46.7394287 6.04543466,46.6540491 C5.15781063,46.566927 4.4637549,46.2654846 4.0086078,45.7009335 C3.96501133,44.7269086 3.76969917,43.3416675 3.44534147,41.5225585 C3.0983136,39.8341325 2.90300144,38.1875252 2.85940497,36.5635696 C5.02702123,36.5200085 6.3052696,37.9069921 6.73949039,40.6983836 C7.32368303,45.1398673 7.67071089,47.4120112 7.75790382,47.5426943" id="Fill-60" fill="#FFFFFF"></path>
                        <path d="M18.8519836,29.1587153 C17.5946615,32.6226893 14.7347334,34.8965757 10.2931255,36.0030261 C10.6401533,34.5289205 11.5923001,32.9258742 13.2175764,31.2374482 C15.1689542,29.1813671 17.033139,28.466966 18.8519836,29.1587153" id="Fill-62" fill="#FFFFFF"></path>
                        <path d="M9.14427142,40.0062858 C8.96988556,39.8773451 8.84084002,39.6612823 8.71005063,39.3580975 C8.49381216,38.9468812 8.34209646,38.685515 8.25664739,38.5983929 C7.88694936,38.1017971 7.21556379,37.9937657 6.28434329,38.2760412 C5.87279266,35.3731334 5.87279266,31.9300688 6.28434329,28.0113175 C8.23397723,28.3354117 9.18612403,30.0255801 9.14427142,33.012125 C9.10241882,37.4971698 9.10241882,39.833784 9.14427142,40.0062858" id="Fill-64" fill="#FFFFFF"></path>
                        <path d="M37.141224,5.16947585 C37.3574624,5.12591481 38.2904268,4.88720031 39.9366293,4.47598408 C41.2148777,4.12923819 42.2559613,3.91317543 43.0563924,3.78423475 C45.5919628,3.35036678 47.4334775,3.63264233 48.5826803,4.6066672 C47.846772,5.4517514 46.329615,5.90478622 44.010283,5.9919083 C40.5208219,6.16441003 38.6357108,6.27244141 38.2904268,6.31774489 C38.4630688,5.64516242 38.0724445,5.25659793 37.141224,5.16947585" id="Fill-66" fill="#FFFFFF"></path>
                        <path d="M49.7093874,1.74749472 C49.3850297,0.233312935 48.0631848,-0.308586414 45.7874494,0.167100153 C43.5326402,0.621877421 42.3642549,1.53143196 42.2979883,2.89576376 C43.0147142,3.26341894 44.1185767,3.17629686 45.65666,2.63613995 C47.4336519,1.96529992 48.7781669,1.66037264 49.7093874,1.74749472" id="Fill-68" fill="#FFFFFF"></path>
                        <path d="M40.565116,0.0374624952 C39.8501339,3.0257499 37.1837741,5.12539208 32.5695242,6.31722216 C33.978562,3.52408821 36.6431779,1.4227036 40.565116,0.0374624952" id="Fill-70" fill="#FFFFFF"></path>
                    </g>
                </g>
            </g>
        </g>
    </g>
</svg>