<?xml version="1.0" encoding="UTF-8" standalone="no"?>
<svg width="358px" height="116px" viewBox="0 0 358 116" version="1.1" xmlns="http://www.w3.org/2000/svg" xmlns:xlink="http://www.w3.org/1999/xlink">
    <!-- Generator: Sketch 40.3 (33839) - http://www.bohemiancoding.com/sketch -->
    <title>awards-header</title>
    <desc>Created with Sketch.</desc>
    <defs>
        <polygon id="path-1" points="0 0.729466506 0 10.0403816 8.58135386 10.0403816 8.58135386 0.729466506 0 0.729466506"></polygon>
        <polygon id="path-3" points="0 0.729466506 0 10.0403816 8.58135386 10.0403816 8.58135386 0.729466506 0 0.729466506"></polygon>
    </defs>
    <g id="Page-1" stroke="none" stroke-width="1" fill="none" fill-rule="evenodd">
        <g id="main-page-vr-2" transform="translate(-332.000000, -4899.000000)">
            <g id="Call-for-Nominations" transform="translate(-1.000000, 4816.000000)">
                <g id="awards-header" transform="translate(333.000000, 83.000000)">
                    <path d="M81.1291504,35.6665039 C82.003992,34.5678656 82.4414062,33.0053812 82.4414062,30.9790039 C82.4414062,28.9607646 82.003992,27.4003148 81.1291504,26.2976074 C80.2543088,25.1949001 79.0722731,24.6435547 77.5830078,24.6435547 C76.0937426,24.6435547 74.9056034,25.1928656 74.0185547,26.2915039 C73.131506,27.3901422 72.6879883,28.9526266 72.6879883,30.9790039 C72.6879883,33.0053812 73.131506,34.5678656 74.0185547,35.6665039 C74.9056034,36.7651422 76.0937426,37.3144531 77.5830078,37.3144531 C79.0722731,37.3144531 80.2543088,36.7651422 81.1291504,35.6665039 L81.1291504,35.6665039 Z M83.4790039,38.4008789 C82.1199476,39.8006255 80.1546353,40.5004883 77.5830078,40.5004883 C75.0113804,40.5004883 73.046068,39.8006255 71.6870117,38.4008789 C69.8640859,36.6837479 68.9526367,34.2098143 68.9526367,30.9790039 C68.9526367,27.683089 69.8640859,25.2091554 71.6870117,23.5571289 C73.046068,22.1573823 75.0113804,21.4575195 77.5830078,21.4575195 C80.1546353,21.4575195 82.1199476,22.1573823 83.4790039,23.5571289 C85.2937916,25.2091554 86.2011719,27.683089 86.2011719,30.9790039 C86.2011719,34.2098143 85.2937916,36.6837479 83.4790039,38.4008789 L83.4790039,38.4008789 Z M98.4631348,25.7299805 C97.970782,25.3312155 97.2810917,25.1318359 96.394043,25.1318359 L92.890625,25.1318359 L92.890625,30.4296875 L96.394043,30.4296875 C97.2810917,30.4296875 97.970782,30.2140321 98.4631348,29.7827148 C98.9554875,29.3513976 99.2016602,28.6678107 99.2016602,27.7319336 C99.2016602,26.7960565 98.9554875,26.1287455 98.4631348,25.7299805 L98.4631348,25.7299805 Z M101.313477,32.2119141 C100.239252,33.0908247 98.7052509,33.5302734 96.7114258,33.5302734 L92.890625,33.5302734 L92.890625,40 L89.1552734,40 L89.1552734,22.0068359 L96.9921875,22.0068359 C98.7988372,22.0068359 100.239252,22.4706985 101.313477,23.3984375 C102.387701,24.3261765 102.924805,25.7625228 102.924805,27.7075195 C102.924805,29.8315536 102.387701,31.3330034 101.313477,32.2119141 L101.313477,32.2119141 Z M119.050293,25.1928711 L109.528809,25.1928711 L109.528809,29.0136719 L118.269043,29.0136719 L118.269043,32.1386719 L109.528809,32.1386719 L109.528809,36.7651367 L119.489746,36.7651367 L119.489746,40 L105.854492,40 L105.854492,22.0068359 L119.050293,22.0068359 L119.050293,25.1928711 Z M122.358398,22.0068359 L126.30127,22.0068359 L133.466797,34.5678711 L133.466797,22.0068359 L136.970215,22.0068359 L136.970215,40 L133.210449,40 L125.861816,27.2192383 L125.861816,40 L122.358398,40 L122.358398,22.0068359 Z M160.725098,25.1928711 L151.203613,25.1928711 L151.203613,29.0136719 L159.943848,29.0136719 L159.943848,32.1386719 L151.203613,32.1386719 L151.203613,36.7651367 L161.164551,36.7651367 L161.164551,40 L147.529297,40 L147.529297,22.0068359 L160.725098,22.0068359 L160.725098,25.1928711 Z M167.744141,25.1318359 L167.744141,36.875 L171.210938,36.875 C172.985035,36.875 174.222002,36.0001715 174.921875,34.2504883 C175.304364,33.290197 175.495605,32.1468165 175.495605,30.8203125 C175.495605,28.9892487 175.208743,27.5834196 174.63501,26.6027832 C174.061276,25.6221468 172.91993,25.1318359 171.210938,25.1318359 L167.744141,25.1318359 Z M174.628906,22.3974609 C175.890306,22.8125021 176.911617,23.5733994 177.692871,24.6801758 C178.319502,25.5753625 178.746744,26.5437773 178.974609,27.5854492 C179.202475,28.6271211 179.316406,29.6199497 179.316406,30.5639648 C179.316406,32.9565549 178.836268,34.9829019 177.875977,36.6430664 C176.573887,38.8810333 174.563816,40 171.845703,40 L164.094238,40 L164.094238,22.0068359 L171.845703,22.0068359 C172.960618,22.0231121 173.888343,22.1533191 174.628906,22.3974609 L174.628906,22.3974609 Z M182.148438,22.0068359 L185.969238,22.0068359 L185.969238,33.0664062 C185.969238,34.3033916 186.115721,35.2067029 186.408691,35.7763672 C186.864423,36.7854868 187.857251,37.2900391 189.387207,37.2900391 C190.909025,37.2900391 191.897784,36.7854868 192.353516,35.7763672 C192.646486,35.2067029 192.792969,34.3033916 192.792969,33.0664062 L192.792969,22.0068359 L196.61377,22.0068359 L196.61377,33.0664062 C196.61377,34.9788507 196.316735,36.4680936 195.722656,37.5341797 C194.61588,39.4873145 192.504085,40.4638672 189.387207,40.4638672 C186.270329,40.4638672 184.154465,39.4873145 183.039551,37.5341797 C182.445472,36.4680936 182.148438,34.9788507 182.148438,33.0664062 L182.148438,22.0068359 Z M201.948242,23.8867188 C203.413093,22.4055916 205.276681,21.6650391 207.539062,21.6650391 C210.566421,21.6650391 212.779941,22.6578677 214.179688,24.6435547 C214.952803,25.7584691 215.367838,26.8774358 215.424805,28.0004883 L211.665039,28.0004883 C211.420897,27.1378538 211.107587,26.4868186 210.725098,26.0473633 C210.0415,25.2661094 209.028327,24.8754883 207.685547,24.8754883 C206.318353,24.8754883 205.240076,25.4268337 204.450684,26.529541 C203.661292,27.6322484 203.266602,29.1926982 203.266602,31.2109375 C203.266602,33.2291768 203.683671,34.740799 204.517822,35.7458496 C205.351974,36.7509002 206.41194,37.253418 207.697754,37.253418 C209.01612,37.253418 210.021155,36.8221072 210.712891,35.9594727 C211.09538,35.4956031 211.412759,34.7998093 211.665039,33.8720703 L215.388184,33.8720703 C215.062661,35.8333431 214.230557,37.4283793 212.891846,38.6572266 C211.553135,39.8860739 209.838064,40.5004883 207.746582,40.5004883 C205.158678,40.5004883 203.124194,39.6704185 201.643066,38.0102539 C200.161939,36.3419513 199.421387,34.0551903 199.421387,31.1499023 C199.421387,28.0086106 200.263663,25.5875736 201.948242,23.8867188 L201.948242,23.8867188 Z M223.17627,33.2006836 L227.741699,33.2006836 L225.495605,26.1206055 L223.17627,33.2006836 Z M223.408203,22.0068359 L227.65625,22.0068359 L234.02832,40 L229.951172,40 L228.791504,36.3012695 L222.163086,36.3012695 L220.917969,40 L216.987305,40 L223.408203,22.0068359 Z M247.541504,22.0068359 L247.541504,25.1928711 L242.158203,25.1928711 L242.158203,40 L238.374023,40 L238.374023,25.1928711 L232.966309,25.1928711 L232.966309,22.0068359 L247.541504,22.0068359 Z M253.181152,40 L249.445801,40 L249.445801,22.0068359 L253.181152,22.0068359 L253.181152,40 Z M268.189697,35.6665039 C269.064539,34.5678656 269.501953,33.0053812 269.501953,30.9790039 C269.501953,28.9607646 269.064539,27.4003148 268.189697,26.2976074 C267.314856,25.1949001 266.13282,24.6435547 264.643555,24.6435547 C263.154289,24.6435547 261.96615,25.1928656 261.079102,26.2915039 C260.192053,27.3901422 259.748535,28.9526266 259.748535,30.9790039 C259.748535,33.0053812 260.192053,34.5678656 261.079102,35.6665039 C261.96615,36.7651422 263.154289,37.3144531 264.643555,37.3144531 C266.13282,37.3144531 267.314856,36.7651422 268.189697,35.6665039 L268.189697,35.6665039 Z M270.539551,38.4008789 C269.180495,39.8006255 267.215182,40.5004883 264.643555,40.5004883 C262.071927,40.5004883 260.106615,39.8006255 258.747559,38.4008789 C256.924633,36.6837479 256.013184,34.2098143 256.013184,30.9790039 C256.013184,27.683089 256.924633,25.2091554 258.747559,23.5571289 C260.106615,22.1573823 262.071927,21.4575195 264.643555,21.4575195 C267.215182,21.4575195 269.180495,22.1573823 270.539551,23.5571289 C272.354339,25.2091554 273.261719,27.683089 273.261719,30.9790039 C273.261719,34.2098143 272.354339,36.6837479 270.539551,38.4008789 L270.539551,38.4008789 Z M276.069336,22.0068359 L280.012207,22.0068359 L287.177734,34.5678711 L287.177734,22.0068359 L290.681152,22.0068359 L290.681152,40 L286.921387,40 L279.572754,27.2192383 L279.572754,40 L276.069336,40 L276.069336,22.0068359 Z M100.666504,63.2006836 L105.231934,63.2006836 L102.98584,56.1206055 L100.666504,63.2006836 Z M100.898438,52.0068359 L105.146484,52.0068359 L111.518555,70 L107.441406,70 L106.281738,66.3012695 L99.6533203,66.3012695 L98.4082031,70 L94.4775391,70 L100.898438,52.0068359 Z M114.887695,52.0068359 L117.268066,62.3095703 L117.780762,65.1782227 L118.305664,62.3706055 L120.332031,52.0068359 L124.299316,52.0068359 L126.435547,62.3095703 L126.984863,65.1782227 L127.53418,62.4194336 L129.938965,52.0068359 L133.759766,52.0068359 L128.693848,70 L125.10498,70 L122.932129,59.4775391 L122.297363,55.9985352 L121.662598,59.4775391 L119.489746,70 L115.998535,70 L110.895996,52.0068359 L114.887695,52.0068359 Z M139.58252,63.2006836 L144.147949,63.2006836 L141.901855,56.1206055 L139.58252,63.2006836 Z M139.814453,52.0068359 L144.0625,52.0068359 L150.43457,70 L146.357422,70 L145.197754,66.3012695 L138.569336,66.3012695 L137.324219,70 L133.393555,70 L139.814453,52.0068359 Z M156.477051,55.1318359 L156.477051,59.9658203 L160.737305,59.9658203 C161.583663,59.9658203 162.218422,59.868165 162.641602,59.6728516 C163.390303,59.331053 163.764648,58.655604 163.764648,57.6464844 C163.764648,56.5559841 163.40251,55.8235696 162.678223,55.4492188 C162.27132,55.2376292 161.660974,55.1318359 160.847168,55.1318359 L156.477051,55.1318359 Z M164.539795,52.4707031 C165.219323,52.7555353 165.795082,53.1746392 166.26709,53.7280273 C166.657717,54.1837588 166.966958,54.688311 167.194824,55.2416992 C167.42269,55.7950874 167.536621,56.4257777 167.536621,57.1337891 C167.536621,57.9882855 167.320966,58.8285278 166.889648,59.654541 C166.458331,60.4805543 165.746261,61.0644514 164.753418,61.40625 C165.5835,61.7399105 166.171466,62.2139455 166.517334,62.8283691 C166.863202,63.4427928 167.036133,64.3806903 167.036133,65.6420898 L167.036133,66.8505859 C167.036133,67.6725302 167.068685,68.229979 167.133789,68.5229492 C167.231446,68.9868187 167.459308,69.3286122 167.817383,69.5483398 L167.817383,70 L163.679199,70 C163.565266,69.601235 163.483887,69.2797864 163.435059,69.0356445 C163.337402,68.5310847 163.284505,68.0143256 163.276367,67.4853516 L163.251953,65.8129883 C163.235677,64.6655216 163.026125,63.9005553 162.623291,63.5180664 C162.220457,63.1355775 161.465663,62.9443359 160.358887,62.9443359 L156.477051,62.9443359 L156.477051,70 L152.802734,70 L152.802734,52.0068359 L161.628418,52.0068359 C162.889818,52.0312501 163.860267,52.185871 164.539795,52.4707031 L164.539795,52.4707031 Z M174.421387,55.1318359 L174.421387,66.875 L177.888184,66.875 C179.662281,66.875 180.899248,66.0001715 181.599121,64.2504883 C181.98161,63.290197 182.172852,62.1468165 182.172852,60.8203125 C182.172852,58.9892487 181.885989,57.5834196 181.312256,56.6027832 C180.738523,55.6221468 179.597177,55.1318359 177.888184,55.1318359 L174.421387,55.1318359 Z M181.306152,52.3974609 C182.567552,52.8125021 183.588863,53.5733994 184.370117,54.6801758 C184.996748,55.5753625 185.42399,56.5437773 185.651855,57.5854492 C185.879721,58.6271211 185.993652,59.6199497 185.993652,60.5639648 C185.993652,62.9565549 185.513514,64.9829019 184.553223,66.6430664 C183.251133,68.8810333 181.241062,70 178.522949,70 L170.771484,70 L170.771484,52.0068359 L178.522949,52.0068359 C179.637864,52.0231121 180.565589,52.1533191 181.306152,52.3974609 L181.306152,52.3974609 Z M191.547852,64.4458008 C191.661784,65.267745 191.885578,65.8821594 192.219238,66.2890625 C192.829593,67.0296261 193.875318,67.3999023 195.356445,67.3999023 C196.243494,67.3999023 196.963702,67.3022471 197.51709,67.1069336 C198.5669,66.7325828 199.091797,66.0367889 199.091797,65.0195312 C199.091797,64.4254528 198.831383,63.9656592 198.310547,63.6401367 C197.789711,63.3227523 196.971848,63.0419934 195.856934,62.7978516 L193.952637,62.3706055 C192.080883,61.9474263 190.78695,61.4876327 190.070801,60.9912109 C188.85823,60.1611287 188.251953,58.8631273 188.251953,57.097168 C188.251953,55.4858318 188.837885,54.1471407 190.009766,53.0810547 C191.181646,52.0149686 192.902821,51.4819336 195.17334,51.4819336 C197.069508,51.4819336 198.686924,51.9844514 200.025635,52.989502 C201.364346,53.9945526 202.066243,55.4532782 202.131348,57.3657227 L198.518066,57.3657227 C198.452962,56.2833605 197.980961,55.5143252 197.102051,55.0585938 C196.51611,54.7574855 195.787765,54.6069336 194.916992,54.6069336 C193.948563,54.6069336 193.175459,54.8022441 192.597656,55.1928711 C192.019854,55.583498 191.730957,56.12874 191.730957,56.8286133 C191.730957,57.4715201 192.015785,57.9516586 192.585449,58.269043 C192.951662,58.4806326 193.732904,58.7288397 194.929199,59.0136719 L198.029785,59.7583008 C199.388841,60.0838232 200.414222,60.519203 201.105957,61.0644531 C202.180181,61.9108115 202.717285,63.1355714 202.717285,64.7387695 C202.717285,66.382658 202.088629,67.7477973 200.831299,68.8342285 C199.573968,69.9206597 197.797863,70.4638672 195.50293,70.4638672 C193.159168,70.4638672 191.315925,69.9287977 189.973145,68.8586426 C188.630364,67.7884875 187.958984,66.3175549 187.958984,64.4458008 L191.547852,64.4458008 Z M212.141113,66.5209961 C212.637535,65.3409772 213.809398,64.0918035 215.656738,62.7734375 C217.259936,61.6259708 218.297524,60.8040389 218.769531,60.3076172 C219.493819,59.5345013 219.855957,58.6881556 219.855957,57.7685547 C219.855957,57.019853 219.64844,56.3973007 219.233398,55.9008789 C218.818357,55.4044572 218.224288,55.15625 217.451172,55.15625 C216.393224,55.15625 215.673016,55.5509401 215.290527,56.340332 C215.0708,56.7960635 214.940593,57.5203401 214.899902,58.5131836 L211.518555,58.5131836 C211.575521,57.0076422 211.848142,55.7910203 212.336426,54.8632812 C213.264165,53.0973219 214.912098,52.2143555 217.280273,52.2143555 C219.152028,52.2143555 220.641271,52.7331491 221.748047,53.770752 C222.854823,54.8083548 223.408203,56.1816321 223.408203,57.890625 C223.408203,59.2008529 223.017582,60.3645782 222.236328,61.3818359 C221.72363,62.057295 220.881354,62.8100544 219.709473,63.6401367 L218.317871,64.6289062 C217.447099,65.2473989 216.850994,65.6949856 216.529541,65.9716797 C216.208088,66.2483738 215.937501,66.5698224 215.717773,66.9360352 L223.444824,66.9360352 L223.444824,70 L211.323242,70 C211.355794,68.7304624 211.628415,67.570806 212.141113,66.5209961 L212.141113,66.5209961 Z M229.279785,65.9899902 C229.613446,67.0682834 230.297033,67.6074219 231.330566,67.6074219 C232.3641,67.6074219 233.041584,67.0682834 233.363037,65.9899902 C233.684491,64.9116971 233.845215,63.3553162 233.845215,61.3208008 C233.845215,59.1886287 233.684491,57.6098684 233.363037,56.5844727 C233.041584,55.5590769 232.3641,55.0463867 231.330566,55.0463867 C230.297033,55.0463867 229.613446,55.5590769 229.279785,56.5844727 C228.946125,57.6098684 228.779297,59.1886287 228.779297,61.3208008 C228.779297,63.3553162 228.946125,64.9116971 229.279785,65.9899902 L229.279785,65.9899902 Z M236.072998,54.5581055 C236.980392,56.1450275 237.434082,58.3992367 237.434082,61.3208008 C237.434082,64.2423649 236.980392,66.4925051 236.072998,68.0712891 C235.165604,69.650073 233.584809,70.4394531 231.330566,70.4394531 C229.076323,70.4394531 227.495529,69.650073 226.588135,68.0712891 C225.680741,66.4925051 225.227051,64.2423649 225.227051,61.3208008 C225.227051,58.3992367 225.680741,56.1450275 226.588135,54.5581055 C227.495529,52.9711835 229.076323,52.1777344 231.330566,52.1777344 C233.584809,52.1777344 235.165604,52.9711835 236.072998,54.5581055 L236.072998,54.5581055 Z M240.083008,57.7929688 L240.083008,55.4248047 C241.181646,55.3759763 241.950681,55.3027349 242.390137,55.2050781 C243.09001,55.050455 243.659666,54.7412133 244.099121,54.2773438 C244.400229,53.9599594 244.628092,53.5367865 244.782715,53.0078125 C244.872234,52.6904281 244.916992,52.4544279 244.916992,52.2998047 L247.810059,52.2998047 L247.810059,70 L244.245605,70 L244.245605,57.7929688 L240.083008,57.7929688 Z M257.203369,66.887207 C257.655032,67.3673527 258.279618,67.6074219 259.077148,67.6074219 C259.874678,67.6074219 260.499265,67.3673527 260.950928,66.887207 C261.40259,66.4070614 261.628418,65.7316124 261.628418,64.8608398 C261.628418,63.957515 261.398521,63.2718936 260.938721,62.8039551 C260.47892,62.3360165 259.858402,62.1020508 259.077148,62.1020508 C258.295895,62.1020508 257.675377,62.3360165 257.215576,62.8039551 C256.755776,63.2718936 256.525879,63.957515 256.525879,64.8608398 C256.525879,65.7316124 256.751707,66.4070614 257.203369,66.887207 L257.203369,66.887207 Z M253.590088,62.3950195 C254.04175,61.5893514 254.702958,60.983075 255.57373,60.5761719 C254.719234,60.0065076 254.16382,59.3900587 253.907471,58.7268066 C253.651122,58.0635546 253.522949,57.4430367 253.522949,56.8652344 C253.522949,55.5794207 254.007157,54.4828333 254.975586,53.5754395 C255.944015,52.6680456 257.311189,52.2143555 259.077148,52.2143555 C260.843108,52.2143555 262.210282,52.6680456 263.178711,53.5754395 C264.14714,54.4828333 264.631348,55.5794207 264.631348,56.8652344 C264.631348,57.4430367 264.503175,58.0635546 264.246826,58.7268066 C263.990477,59.3900587 263.435063,59.9658179 262.580566,60.4541016 C263.451339,60.9423853 264.106443,61.5893514 264.545898,62.3950195 C264.985354,63.2006876 265.205078,64.0999299 265.205078,65.0927734 C265.205078,66.5820387 264.653733,67.8495228 263.551025,68.8952637 C262.448318,69.9410046 260.908213,70.4638672 258.930664,70.4638672 C256.953115,70.4638672 255.455734,69.9410046 254.438477,68.8952637 C253.421219,67.8495228 252.912598,66.5820387 252.912598,65.0927734 C252.912598,64.0999299 253.138425,63.2006876 253.590088,62.3950195 L253.590088,62.3950195 Z M257.435303,58.8305664 C257.829999,59.2374695 258.377275,59.440918 259.077148,59.440918 C259.78516,59.440918 260.332436,59.2374695 260.718994,58.8305664 C261.105552,58.4236633 261.298828,57.8987662 261.298828,57.2558594 C261.298828,56.5559861 261.105552,56.0087097 260.718994,55.6140137 C260.332436,55.2193177 259.78516,55.0219727 259.077148,55.0219727 C258.377275,55.0219727 257.829999,55.2193177 257.435303,55.6140137 C257.040607,56.0087097 256.843262,56.5559861 256.843262,57.2558594 C256.843262,57.8987662 257.040607,58.4236633 257.435303,58.8305664 L257.435303,58.8305664 Z" id="OPEN-EDUCATION" fill="#FFFFFF"></path>
                    <path d="M69.5605469,78.6992188 C70.5631561,79.6562548 71.1197911,80.7434835 71.2304688,81.9609375 L69.3359375,81.9609375 C69.1210927,81.0364537 68.6930371,80.3040392 68.0517578,79.7636719 C67.4104786,79.2233046 66.5104225,78.953125 65.3515625,78.953125 C63.938795,78.953125 62.7978559,79.4495393 61.9287109,80.4423828 C61.059566,81.4352263 60.625,82.957021 60.625,85.0078125 C60.625,86.6875084 61.0172487,88.0497995 61.8017578,89.0947266 C62.5862669,90.1396537 63.7565026,90.6621094 65.3125,90.6621094 C66.7447988,90.6621094 67.8352827,90.1119847 68.5839844,89.0117188 C68.9811218,88.4322888 69.2773428,87.6705776 69.4726562,86.7265625 L71.3671875,86.7265625 C71.1979158,88.2369867 70.6380256,89.5032501 69.6875,90.5253906 C68.5481714,91.7558655 67.0117284,92.3710938 65.078125,92.3710938 C63.41145,92.3710938 62.0117244,91.8665415 60.8789062,90.8574219 C59.3880134,89.5227798 58.6425781,87.4622535 58.6425781,84.6757812 C58.6425781,82.5598853 59.2024684,80.8248766 60.3222656,79.4707031 C61.5332092,77.9993416 63.2031144,77.2636719 65.3320312,77.2636719 C67.1484466,77.2636719 68.5579377,77.7421827 69.5605469,78.6992188 L69.5605469,78.6992188 Z M81.09375,86.1210938 L78.9160156,79.7832031 L76.6015625,86.1210938 L81.09375,86.1210938 Z M77.9003906,77.6542969 L80.0976562,77.6542969 L85.3027344,92 L83.1738281,92 L81.71875,87.703125 L76.0449219,87.703125 L74.4921875,92 L72.5,92 L77.9003906,77.6542969 Z M87.0703125,77.6542969 L89.0136719,77.6542969 L89.0136719,90.2910156 L96.2792969,90.2910156 L96.2792969,92 L87.0703125,92 L87.0703125,77.6542969 Z M98.1933594,77.6542969 L100.136719,77.6542969 L100.136719,90.2910156 L107.402344,90.2910156 L107.402344,92 L98.1933594,92 L98.1933594,77.6542969 Z M115.058594,77.6542969 L125.009766,77.6542969 L125.009766,79.4121094 L117.001953,79.4121094 L117.001953,83.7675781 L124.042969,83.7675781 L124.042969,85.4765625 L117.001953,85.4765625 L117.001953,92 L115.058594,92 L115.058594,77.6542969 Z M138.90625,79.7050781 C139.856776,80.9746157 140.332031,82.5989484 140.332031,84.578125 C140.332031,86.7200628 139.788417,88.5006439 138.701172,89.9199219 C137.425124,91.5865969 135.605481,92.4199219 133.242188,92.4199219 C131.035145,92.4199219 129.300137,91.6907625 128.037109,90.2324219 C126.910802,88.8261648 126.347656,87.0488389 126.347656,84.9003906 C126.347656,82.9602768 126.829422,81.3001371 127.792969,79.9199219 C129.029954,78.1490797 130.859363,77.2636719 133.28125,77.2636719 C135.813815,77.2636719 137.688796,78.0774658 138.90625,79.7050781 L138.90625,79.7050781 Z M137.192383,88.8408203 C137.957361,87.6136006 138.339844,86.2024819 138.339844,84.6074219 C138.339844,82.9212155 137.898767,81.5638072 137.016602,80.5351562 C136.134436,79.5065053 134.928393,78.9921875 133.398438,78.9921875 C131.914055,78.9921875 130.70313,79.5016225 129.765625,80.5205078 C128.82812,81.5393931 128.359375,83.0416567 128.359375,85.0273438 C128.359375,86.6158934 128.761389,87.9553982 129.56543,89.0458984 C130.36947,90.1363987 131.673168,90.6816406 133.476562,90.6816406 C135.188811,90.6816406 136.427405,90.06804 137.192383,88.8408203 L137.192383,88.8408203 Z M149.316406,84.2265625 C150.227869,84.2265625 150.948891,84.0442727 151.479492,83.6796875 C152.010094,83.3151023 152.275391,82.6575568 152.275391,81.7070312 C152.275391,80.6848907 151.904301,79.9882831 151.162109,79.6171875 C150.764972,79.421874 150.234378,79.3242188 149.570312,79.3242188 L144.824219,79.3242188 L144.824219,84.2265625 L149.316406,84.2265625 Z M142.880859,77.6542969 L149.521484,77.6542969 C150.61524,77.6542969 151.516924,77.8138005 152.226562,78.1328125 C153.574225,78.7447947 154.248047,79.8743407 154.248047,81.5214844 C154.248047,82.3808637 154.07064,83.0839816 153.71582,83.6308594 C153.361001,84.1777371 152.864587,84.6171858 152.226562,84.9492188 C152.786461,85.1770845 153.208006,85.4765606 153.491211,85.8476562 C153.774415,86.2187519 153.932292,86.8209594 153.964844,87.6542969 L154.033203,89.578125 C154.052734,90.1250027 154.098307,90.5318997 154.169922,90.7988281 C154.28711,91.2545596 154.495441,91.5475254 154.794922,91.6777344 L154.794922,92 L152.412109,92 C152.347005,91.8763015 152.294922,91.7167979 152.255859,91.5214844 C152.216797,91.3261709 152.184245,90.9485705 152.158203,90.3886719 L152.041016,87.9960938 C151.995442,87.0585891 151.647139,86.4303401 150.996094,86.1113281 C150.624998,85.935546 150.042322,85.8476562 149.248047,85.8476562 L144.824219,85.8476562 L144.824219,92 L142.880859,92 L142.880859,77.6542969 Z M162.646484,77.6542969 L164.941406,77.6542969 L172.1875,89.2753906 L172.1875,77.6542969 L174.033203,77.6542969 L174.033203,92 L171.855469,92 L164.501953,80.3886719 L164.501953,92 L162.646484,92 L162.646484,77.6542969 Z M188.90625,79.7050781 C189.856776,80.9746157 190.332031,82.5989484 190.332031,84.578125 C190.332031,86.7200628 189.788417,88.5006439 188.701172,89.9199219 C187.425124,91.5865969 185.605481,92.4199219 183.242188,92.4199219 C181.035145,92.4199219 179.300137,91.6907625 178.037109,90.2324219 C176.910802,88.8261648 176.347656,87.0488389 176.347656,84.9003906 C176.347656,82.9602768 176.829422,81.3001371 177.792969,79.9199219 C179.029954,78.1490797 180.859363,77.2636719 183.28125,77.2636719 C185.813815,77.2636719 187.688796,78.0774658 188.90625,79.7050781 L188.90625,79.7050781 Z M187.192383,88.8408203 C187.957361,87.6136006 188.339844,86.2024819 188.339844,84.6074219 C188.339844,82.9212155 187.898767,81.5638072 187.016602,80.5351562 C186.134436,79.5065053 184.928393,78.9921875 183.398438,78.9921875 C181.914055,78.9921875 180.70313,79.5016225 179.765625,80.5205078 C178.82812,81.5393931 178.359375,83.0416567 178.359375,85.0273438 C178.359375,86.6158934 178.761389,87.9553982 179.56543,89.0458984 C180.36947,90.1363987 181.673168,90.6816406 183.476562,90.6816406 C185.188811,90.6816406 186.427405,90.06804 187.192383,88.8408203 L187.192383,88.8408203 Z M192.597656,77.6542969 L195.380859,77.6542969 L199.501953,89.7832031 L203.59375,77.6542969 L206.347656,77.6542969 L206.347656,92 L204.501953,92 L204.501953,83.5332031 C204.501953,83.2402329 204.508463,82.7552117 204.521484,82.078125 C204.534505,81.4010383 204.541016,80.6751341 204.541016,79.9003906 L200.449219,92 L198.525391,92 L194.404297,79.9003906 L194.404297,80.3398438 C194.404297,80.691408 194.412435,81.2268844 194.428711,81.9462891 C194.444987,82.6656937 194.453125,83.1946598 194.453125,83.5332031 L194.453125,92 L192.597656,92 L192.597656,77.6542969 Z M209.746094,77.6542969 L211.708984,77.6542969 L211.708984,92 L209.746094,92 L209.746094,77.6542969 Z M214.863281,77.6542969 L217.158203,77.6542969 L224.404297,89.2753906 L224.404297,77.6542969 L226.25,77.6542969 L226.25,92 L224.072266,92 L216.71875,80.3886719 L216.71875,92 L214.863281,92 L214.863281,77.6542969 Z M236.669922,86.1210938 L234.492188,79.7832031 L232.177734,86.1210938 L236.669922,86.1210938 Z M233.476562,77.6542969 L235.673828,77.6542969 L240.878906,92 L238.75,92 L237.294922,87.703125 L231.621094,87.703125 L230.068359,92 L228.076172,92 L233.476562,77.6542969 Z M253.085938,77.6542969 L253.085938,79.3632812 L248.251953,79.3632812 L248.251953,92 L246.279297,92 L246.279297,79.3632812 L241.445312,79.3632812 L241.445312,77.6542969 L253.085938,77.6542969 Z M255.302734,77.6542969 L257.265625,77.6542969 L257.265625,92 L255.302734,92 L255.302734,77.6542969 Z M272.236328,79.7050781 C273.186854,80.9746157 273.662109,82.5989484 273.662109,84.578125 C273.662109,86.7200628 273.118495,88.5006439 272.03125,89.9199219 C270.755202,91.5865969 268.935559,92.4199219 266.572266,92.4199219 C264.365223,92.4199219 262.630215,91.6907625 261.367188,90.2324219 C260.24088,88.8261648 259.677734,87.0488389 259.677734,84.9003906 C259.677734,82.9602768 260.1595,81.3001371 261.123047,79.9199219 C262.360032,78.1490797 264.189441,77.2636719 266.611328,77.2636719 C269.143893,77.2636719 271.018874,78.0774658 272.236328,79.7050781 L272.236328,79.7050781 Z M270.522461,88.8408203 C271.287439,87.6136006 271.669922,86.2024819 271.669922,84.6074219 C271.669922,82.9212155 271.228846,81.5638072 270.34668,80.5351562 C269.464514,79.5065053 268.258471,78.9921875 266.728516,78.9921875 C265.244133,78.9921875 264.033208,79.5016225 263.095703,80.5205078 C262.158198,81.5393931 261.689453,83.0416567 261.689453,85.0273438 C261.689453,86.6158934 262.091467,87.9553982 262.895508,89.0458984 C263.699548,90.1363987 265.003246,90.6816406 266.806641,90.6816406 C268.518889,90.6816406 269.757483,90.06804 270.522461,88.8408203 L270.522461,88.8408203 Z M275.976562,77.6542969 L278.271484,77.6542969 L285.517578,89.2753906 L285.517578,77.6542969 L287.363281,77.6542969 L287.363281,92 L285.185547,92 L277.832031,80.3886719 L277.832031,92 L275.976562,92 L275.976562,77.6542969 Z M291.689453,87.3710938 C291.735026,88.1848999 291.927082,88.8457006 292.265625,89.3535156 C292.910159,90.3040412 294.046216,90.7792969 295.673828,90.7792969 C296.402998,90.7792969 297.067054,90.6751312 297.666016,90.4667969 C298.824876,90.063149 299.404297,89.3405 299.404297,88.2988281 C299.404297,87.5175742 299.160159,86.9609392 298.671875,86.6289062 C298.177081,86.3033838 297.402349,86.0201835 296.347656,85.7792969 L294.404297,85.3398438 C293.134759,85.053384 292.236331,84.7376319 291.708984,84.3925781 C290.797521,83.7936168 290.341797,82.8984435 290.341797,81.7070312 C290.341797,80.4179623 290.787756,79.3600302 291.679688,78.5332031 C292.571619,77.7063761 293.834627,77.2929688 295.46875,77.2929688 C296.972664,77.2929688 298.25032,77.6559208 299.301758,78.3818359 C300.353195,79.107751 300.878906,80.2682212 300.878906,81.8632812 L299.052734,81.8632812 C298.955078,81.0950482 298.746746,80.5058614 298.427734,80.0957031 C297.835283,79.3470015 296.829434,78.9726562 295.410156,78.9726562 C294.264317,78.9726562 293.440758,79.2135393 292.939453,79.6953125 C292.438149,80.1770857 292.1875,80.736976 292.1875,81.375 C292.1875,82.0781285 292.480466,82.5924463 293.066406,82.9179688 C293.450523,83.1263031 294.319655,83.3867172 295.673828,83.6992188 L297.685547,84.1582031 C298.655604,84.3795584 299.404294,84.6822897 299.931641,85.0664062 C300.843104,85.7369825 301.298828,86.7102801 301.298828,87.9863281 C301.298828,89.5748777 300.721034,90.7109341 299.56543,91.3945312 C298.409825,92.0781284 297.067065,92.4199219 295.537109,92.4199219 C293.753246,92.4199219 292.356776,91.9641973 291.347656,91.0527344 C290.338537,90.1477819 289.84375,88.9205807 289.863281,87.3710938 L291.689453,87.3710938 Z" id="CALL-FOR-NOMINATIONS" fill="#FFFFFF"></path>
                    <g id="Page-1">
                        <path d="M38.2899036,90.3039546 C35.4944983,91.8634398 35.1474704,94.3742982 37.2714902,97.8382722 C39.2647206,101.019971 41.1289054,102.687487 42.8623009,102.861731 C41.627649,102.340741 41.257951,101.757023 41.7130981,101.086183 C42.515273,99.8525347 42.9041535,98.9203285 42.8623009,98.2947919 C42.5588695,97.6657705 41.7566946,96.3885608 40.4575199,94.4823296 C39.3501697,92.9245868 38.6369315,91.5149515 38.2899036,90.3039546" id="Fill-1" fill="#FFFFFF"></path>
                        <path d="M10.8565662,70.8820031 C10.1415842,70.557909 8.66802363,68.8468313 6.41321444,65.7505125 C4.72341545,63.4348075 2.77378151,62.6541937 0.585238951,63.4766261 C0.953193119,64.6893655 1.75536808,66.0763491 2.99001998,67.5905308 C4.41998405,69.4096399 5.33027824,70.6885921 5.72090257,71.4674635 C6.78291247,71.4239024 7.90944514,71.2496583 9.07957427,70.9464734 C9.88174923,70.7321531 10.488612,70.7077589 10.8565662,70.8820031" id="Fill-3" fill="#FFFFFF"></path>
                        <g id="Group-7" transform="translate(0.000000, 53.436245)">
                            <mask id="mask-2" fill="white">
                                <use xlink:href="#path-1"></use>
                            </mask>
                            <g id="Clip-6"></g>
                            <path d="M8.58135386,10.0403816 C8.45056447,9.99856295 8.234326,9.89053157 7.9518209,9.71628741 C7.69198597,9.58734673 7.4548212,9.4984822 7.23683887,9.45666361 C6.5654533,9.32598048 5.67608541,9.52113395 4.5722229,10.0403816 C1.58150538,4.15267126 0.0434220795,1.09991351 -0.000174385862,0.904760046 C2.12384541,0.296647914 3.85724087,1.27241523 5.22268217,3.80592537 C7.3240318,7.7908894 8.45056447,9.86613739 8.58135386,10.0403816" id="Fill-5" fill="#FFFFFF" mask="url(#mask-2)"></path>
                        </g>
                        <path d="M18.8519836,70.3204142 C16.4036061,70.3204142 15.1253577,71.8345959 14.9945683,74.8873537 C14.9509718,75.429253 14.973642,76.7482814 15.0590911,78.8078474 C15.1026875,80.431803 15.0381648,81.5783296 14.8655228,82.3153824 C18.1596717,79.5658095 19.5024428,75.5581937 18.8519836,70.3204142" id="Fill-8" fill="#FFFFFF"></path>
                        <path d="M12.0043739,73.1773215 L12.0043739,74.8866567 C11.4620339,73.4369453 11.3975111,71.4017734 11.8090618,68.7375802 C12.3723281,65.2980004 13.9557517,63.7385151 16.5767712,64.0417 C16.3169363,64.3640517 16.0135049,66.3155863 15.6246244,69.8649399 C15.3194492,72.3757983 14.1283937,73.4578546 12.0043739,73.1773215" id="Fill-10" fill="#FFFFFF"></path>
                        <path d="M12.567989,65.7499897 C10.508492,65.3614253 9.36103305,65.9451432 9.14479458,67.4610674 C9.23024365,67.1143215 9.33836289,66.1838577 9.46915228,64.6679335 C9.64179429,63.1537517 9.81618015,61.9410123 10.0324186,61.0541095 C10.8345936,58.0867314 12.4598698,56.8095217 14.8646508,57.1771769 C14.7356053,58.1076407 14.3240547,59.5155336 13.6509252,61.3764612 C13.0231361,63.0666296 12.655182,64.5180835 12.567989,65.7499897" id="Fill-12" fill="#FFFFFF"></path>
                        <path d="M7.99559175,58.324052 C10.33585,58.2369299 11.8966035,57.1984347 12.6987784,55.2277332 C13.0440624,54.4471193 13.3910903,52.650662 13.7171919,49.7721484 C11.680365,49.9655594 10.1405378,51.3298912 9.08027181,53.8215828 C8.14730745,55.8985732 7.80027959,57.9773061 7.99559175,60.0351297 L7.99559175,58.324052 Z" id="Fill-14" fill="#FFFFFF"></path>
                        <path d="M7.99559175,56.0506884 C7.54044465,55.4878797 6.71734339,53.3655858 5.52628795,49.641988 C4.68051652,46.8924151 3.22962616,45.4183095 1.14920283,45.2022467 C1.01841343,46.8924151 1.97056024,50.119417 4.00913096,54.9041618 C5.35190209,54.6863566 6.19767352,54.6427955 6.54470138,54.7734786 C6.63015046,54.8170397 7.10796772,55.2509077 7.99559175,56.0506884" id="Fill-16" fill="#FFFFFF"></path>
                        <path d="M12.0043739,42.8429808 C12.3078053,41.7609245 13.0227874,40.5690944 14.1719902,39.2936271 C15.4275684,37.8195215 16.2297434,36.716556 16.5767712,36.0021549 C14.7561828,35.32783 13.0437137,35.8697293 11.4411076,37.6470198 C10.1628592,39.0549126 9.2752352,40.6997775 8.77649164,42.6042662 C8.86194071,42.4317645 8.97005995,42.3219907 9.14444581,42.2801721 C9.90302431,42.8220715 10.856915,43.0172249 12.0043739,42.8429808" id="Fill-18" fill="#FFFFFF"></path>
                        <path d="M16.0140281,28.5749974 C20.8235901,24.482002 23.1219958,22.5775133 22.860417,22.8789557 C20.1086081,21.5146239 17.1841572,23.0305481 14.1062467,27.4267284 L14.3015589,27.4267284 C14.5404675,27.4702894 14.7776323,27.7316556 14.9956146,28.2055998 C15.2118531,28.5749974 15.5362108,28.7039381 16.0140281,28.5749974" id="Fill-20" fill="#FFFFFF"></path>
                        <path d="M13.7166687,28.011666 C13.7724723,27.6649201 13.939883,27.4697667 14.2166687,27.4262056 C14.1608651,27.5150701 13.9934544,27.7084812 13.7166687,28.011666" id="Fill-22" fill="#FFFFFF"></path>
                        <path d="M12.0043739,31.4319047 C11.6573461,30.8063682 11.8962547,28.9419556 12.6984297,25.8473793 C13.4134117,23.183186 13.0018611,21.4302897 11.4411076,20.5852055 C10.2500522,21.9495373 9.49147367,25.1747968 9.14444581,30.2853781 C9.53332628,30.2400746 10.1419329,30.5450019 10.9859605,31.1740233 C11.6154935,31.693271 11.9607775,31.7786506 12.0043739,31.4319047" id="Fill-24" fill="#FFFFFF"></path>
                        <path d="M30.4238806,9.30428986 C30.5755963,9.30428986 30.7709084,9.54300436 30.9871469,10.062252 C31.2469818,10.6041513 31.5713395,10.8846844 32.0055603,10.8846844 C32.0491568,10.8846844 34.9090849,10.1267223 40.5644184,8.58988879 C38.1160409,6.09993969 34.7364429,6.33865419 30.4238806,9.30428986" id="Fill-26" fill="#FFFFFF"></path>
                        <path d="M30.4238806,9.30428986 C29.9896598,9.62959106 29.7507511,9.80428986 29.7088985,9.80428986 C30.0123299,9.45489227 30.2494947,9.30428986 30.4238806,9.30428986" id="Fill-28" fill="#FFFFFF"></path>
                        <path d="M17.1405607,20.5850313 C16.5982207,20.6721533 16.1657438,21.1042789 15.8832387,21.9267113 C15.5798073,22.8153566 15.2327794,23.3119524 14.8648252,23.444378 C13.5865769,22.2943665 13.412191,20.4979092 14.3451554,18.0515211 C15.2118531,15.7567255 16.3174595,14.3279233 17.7247534,13.742463 C18.3525425,14.5439861 18.4850757,15.6051331 18.0927075,16.9049945 C17.4230658,19.3513826 17.0969643,20.3898778 17.1405607,20.0222226 C18.0281848,20.2591947 19.4581488,19.6545674 21.4095266,18.1822042 C23.3818307,16.6436283 25.3959874,16.1243807 27.4328143,16.5791579 C26.5887867,18.398267 24.9844368,19.8061599 22.600582,20.7801847 C20.1940572,21.7542096 18.3752126,21.6879968 17.1405607,20.5850313" id="Fill-30" fill="#FFFFFF"></path>
                        <path d="M20.5857278,18.3118419 C20.3677455,18.1829012 20.1096544,17.7699426 19.806223,17.0991025 C19.5673144,16.5136421 19.2412128,16.1459869 18.8523323,16.0170463 C19.1993602,14.414 19.9352685,12.7464833 21.0844714,11.0144963 C22.2336742,9.28250934 23.2067473,8.28757516 24.0089223,8.02795136 C25.1145286,8.3729548 25.2662443,9.218039 24.5076658,10.5597191 C23.4020595,12.4659502 22.8614633,13.5270972 22.8614633,13.7431599 C24.2914274,14.457561 25.3098408,14.2188465 25.9167036,13.0287589 C26.5008962,11.8595805 26.2410613,10.756615 25.1354549,9.73728661 C25.5260793,9.32607038 26.0457491,8.65523035 26.7398049,7.76832755 C27.4547869,6.83612128 27.9744568,6.18793299 28.3232285,5.79588362 C29.6433294,4.32526288 31.0523672,3.351238 32.5695242,2.89646073 C32.8729556,4.32526288 32.0707806,5.94747604 30.1647432,7.76832755 C27.8663375,9.89062147 26.5880892,11.4919253 26.2846578,12.5966333 C26.6316856,12.5530723 27.1513555,12.3997374 27.8663375,12.1401136 C28.7557054,11.8595805 29.3834945,11.6644271 29.7078522,11.5790474 C31.2476794,11.1887405 32.374212,11.3403329 33.1554607,12.0320822 C32.6776434,12.9416368 31.5075143,13.6995989 29.6659996,14.2414982 C27.5855763,14.8687772 26.2637315,15.4751469 25.7213914,16.0170463 C25.2435742,15.9299242 24.7465745,15.6703004 24.2042344,15.2590842 C23.555519,14.7607458 23.1212982,14.4366517 22.8614633,14.3059686 C21.9302428,14.93499 21.3443063,15.4106766 21.0844714,15.6929521 C20.5857278,16.3847015 20.4130858,17.2506949 20.5857278,18.3118419" id="Fill-32" fill="#FFFFFF"></path>
                        <path d="M58.8543563,107.993919 C57.4243923,108.297104 55.5828776,108.103693 53.3280684,107.432853 C51.2267188,106.782922 49.817681,106.608678 49.1462954,106.847392 C49.817681,107.279518 51.0523329,107.690734 52.8293248,108.058389 C54.6935097,108.405135 55.9281616,108.751881 56.5786209,109.140446 C56.5350244,109.185749 54.9306745,109.854847 51.8109114,111.175617 C49.8612775,112.020702 48.6039554,113.060939 47.9970926,114.273679 C48.5185063,114.186557 49.8403512,114.575121 52.0062236,115.420205 C52.4195181,113.9461 53.4588578,112.670632 55.1050603,111.609485 C55.5392811,111.349862 56.2542632,110.959555 57.2726766,110.396746 C58.2474935,109.90015 58.9624756,109.487192 59.438549,109.140446 C58.3346865,109.185749 58.1393743,108.7937 58.8543563,107.993919" id="Fill-34" fill="#FFFFFF"></path>
                        <path d="M32.5688267,109.703951 C32.3525882,106.759225 34.4120852,105.025495 38.7229037,104.572461 C39.6977207,104.485339 41.4537863,104.420868 44.0120269,104.377307 C45.9825871,104.335489 47.3253583,104.204805 47.9984877,104.00791 C47.9548912,104.291928 47.6723861,104.464429 47.1091198,104.509733 C46.9800743,104.549809 46.7620919,104.572461 46.4150641,104.572461 C46.1133765,104.5289 45.8953942,104.5289 45.7210083,104.572461 C46.3505413,107.149532 44.9641737,108.686365 41.5183091,109.205613 C40.4789693,109.378115 38.8955457,109.487889 36.8377926,109.508798 C34.7137728,109.552359 33.2838087,109.616829 32.5688267,109.703951" id="Fill-36" fill="#FFFFFF"></path>
                        <path d="M35.9925443,104.571938 C35.3211587,104.788001 31.1393858,104.59459 23.4245552,104.009129 C24.2685828,101.346678 26.3280798,100.111287 29.5995586,100.329093 C35.0177273,100.653187 38.0956378,100.742051 38.8542163,100.567807 C37.0336279,101.303117 36.0797372,102.623888 35.9925443,104.571938" id="Fill-38" fill="#FFFFFF"></path>
                        <path d="M30.8572294,96.5830173 C30.6392471,96.6265783 27.9537048,95.9975569 22.7953711,94.7412564 C19.5448186,93.9414757 17.4661391,94.9381524 16.5767712,97.7295439 C24.3561245,99.2472105 27.9746311,100.005173 27.434035,100.005173 C27.8229154,98.3603077 28.9494481,97.2102962 30.8572294,96.5830173" id="Fill-40" fill="#FFFFFF"></path>
                        <path d="M44.011155,93.1627786 C44.5953476,93.5304338 47.0646514,95.9977311 51.4225541,100.568156 C51.5080032,101.216344 51.312691,102.192111 50.7930211,103.49023 C50.4895897,104.162813 50.9011404,104.723879 52.0067467,105.135095 C49.5356991,104.335314 47.390753,102.970983 45.528312,101.02119 C42.9927415,98.4023006 42.4713278,95.7816684 44.011155,93.1627786" id="Fill-42" fill="#FFFFFF"></path>
                        <path d="M21.1493429,93.7241933 C21.1493429,92.5776667 21.5835637,91.9277359 22.4711877,91.7552342 C24.0528675,91.4503069 24.7469232,91.3649273 24.5725374,91.4311401 C24.5725374,91.4311401 22.0596371,90.4780245 17.0094226,88.5282323 C13.846063,87.2963261 11.5929977,87.8783016 10.2920792,90.3037803 C11.0942541,90.4780245 12.7422005,91.1924256 15.2324306,92.448726 C17.1402119,93.4663119 19.112516,93.8984374 21.1493429,93.7241933" id="Fill-44" fill="#FFFFFF"></path>
                        <path id="Fill-46" fill="#FFFFFF"></path>
                        <path d="M31.442294,86.2984297 C31.6376062,86.8612384 32.1136796,87.7707929 32.8286616,89.0270933 C33.6308366,90.4768048 34.1731766,91.4943907 34.476608,92.1443214 C35.5386179,94.6342705 35.0817269,96.3000447 33.1547632,97.1451289 C33.2628824,97.2775545 33.3919279,97.516269 33.5227173,97.8386207 C33.6535067,98.1853666 33.761626,98.4240811 33.847075,98.5530218 C31.984634,97.232251 30.6191927,95.3922326 29.7734213,93.0329667 C28.7340816,90.110892 29.2746777,87.857915 31.442294,86.2984297" id="Fill-48" fill="#FFFFFF"></path>
                        <path d="M28.5820171,90.3039546 C28.5384206,90.889415 27.9960806,91.5811643 26.979411,92.3826874 C26.2208325,92.9890571 26.1772361,93.813232 26.8695479,94.8726365 C22.8394907,88.6590897 22.4488663,84.2629094 25.722089,81.7293993 C26.6533095,82.2068283 27.2601723,83.484038 27.5636037,85.6063319 C27.8461088,88.1398421 28.1913928,89.6975849 28.5820171,90.3039546" id="Fill-50" fill="#FFFFFF"></path>
                        <path d="M17.1405607,85.1515546 C16.5110278,84.9982198 16.0994771,85.216025 15.8832387,85.8659557 C15.6670002,86.5803568 15.3199723,86.9271027 14.8648252,86.8835416 C12.6989528,86.4932347 10.747575,85.7126209 9.01417957,84.5225332 C7.1081421,83.2662328 6.19784791,81.945462 6.28329698,80.6055244 C8.53636231,79.6715757 10.7702452,80.0392309 13.0233105,81.7293993 C15.8187159,83.8952542 17.7683498,85.0417808 18.851286,85.1515546 C18.7013142,85.5401191 18.4414792,85.6708023 18.0927075,85.5401191 C17.3794693,85.2804953 17.0533678,85.1515546 17.1405607,85.1515546" id="Fill-52" fill="#FFFFFF"></path>
                        <path d="M22.2980226,76.5993026 C23.5989411,80.1068376 23.0339309,84.2852127 20.5855534,89.1570795 C19.3927541,85.1076451 18.7667089,82.5950443 18.6777721,81.6645804 C18.4615336,78.7198541 19.6752592,77.0105188 22.2980226,76.5993026" id="Fill-54" fill="#FFFFFF"></path>
                        <path d="M14.3017333,78.3095091 C12.3520993,79.7365688 9.94557446,79.5658095 7.10831649,77.7467004 C4.48555313,76.0147134 3.07651537,74.1084823 2.8602769,72.0297494 C4.94070023,71.3153483 6.9984534,71.9861884 9.01435396,74.0649212 C11.5272542,76.6001738 13.2833198,78.0045818 14.3017333,78.3095091" id="Fill-56" fill="#FFFFFF"></path>
                        <path d="M10.2927767,50.8982884 C10.0747944,50.8547274 9.77310684,50.7885146 9.33888604,50.6595739 C8.94826171,50.5288908 8.69017064,50.4417687 8.51578478,50.3999501 C7.97344475,50.3563891 7.60549058,50.7240443 7.43284858,51.4837488 C8.06063768,48.9920573 8.71109694,47.1956 9.33888604,46.090892 C10.7043273,43.7507928 12.5249157,42.6931308 14.865174,42.8429808 C14.7343846,43.3639708 13.2172276,46.0490734 10.2927767,50.8982884" id="Fill-58" fill="#FFFFFF"></path>
                        <path d="M7.75790382,47.5426943 C7.41087596,47.0426136 6.84760963,46.7394287 6.04543466,46.6540491 C5.15781063,46.566927 4.4637549,46.2654846 4.0086078,45.7009335 C3.96501133,44.7269086 3.76969917,43.3416675 3.44534147,41.5225585 C3.0983136,39.8341325 2.90300144,38.1875252 2.85940497,36.5635696 C5.02702123,36.5200085 6.3052696,37.9069921 6.73949039,40.6983836 C7.32368303,45.1398673 7.67071089,47.4120112 7.75790382,47.5426943" id="Fill-60" fill="#FFFFFF"></path>
                        <path d="M18.8519836,29.1587153 C17.5946615,32.6226893 14.7347334,34.8965757 10.2931255,36.0030261 C10.6401533,34.5289205 11.5923001,32.9258742 13.2175764,31.2374482 C15.1689542,29.1813671 17.033139,28.466966 18.8519836,29.1587153" id="Fill-62" fill="#FFFFFF"></path>
                        <path d="M9.14427142,40.0062858 C8.96988556,39.8773451 8.84084002,39.6612823 8.71005063,39.3580975 C8.49381216,38.9468812 8.34209646,38.685515 8.25664739,38.5983929 C7.88694936,38.1017971 7.21556379,37.9937657 6.28434329,38.2760412 C5.87279266,35.3731334 5.87279266,31.9300688 6.28434329,28.0113175 C8.23397723,28.3354117 9.18612403,30.0255801 9.14427142,33.012125 C9.10241882,37.4971698 9.10241882,39.833784 9.14427142,40.0062858" id="Fill-64" fill="#FFFFFF"></path>
                        <path d="M37.141224,5.16947585 C37.3574624,5.12591481 38.2904268,4.88720031 39.9366293,4.47598408 C41.2148777,4.12923819 42.2559613,3.91317543 43.0563924,3.78423475 C45.5919628,3.35036678 47.4334775,3.63264233 48.5826803,4.6066672 C47.846772,5.4517514 46.329615,5.90478622 44.010283,5.9919083 C40.5208219,6.16441003 38.6357108,6.27244141 38.2904268,6.31774489 C38.4630688,5.64516242 38.0724445,5.25659793 37.141224,5.16947585" id="Fill-66" fill="#FFFFFF"></path>
                        <path d="M49.7093874,1.74749472 C49.3850297,0.233312935 48.0631848,-0.308586414 45.7874494,0.167100153 C43.5326402,0.621877421 42.3642549,1.53143196 42.2979883,2.89576376 C43.0147142,3.26341894 44.1185767,3.17629686 45.65666,2.63613995 C47.4336519,1.96529992 48.7781669,1.66037264 49.7093874,1.74749472" id="Fill-68" fill="#FFFFFF"></path>
                        <path d="M40.565116,0.0374624952 C39.8501339,3.0257499 37.1837741,5.12539208 32.5695242,6.31722216 C33.978562,3.52408821 36.6431779,1.4227036 40.565116,0.0374624952" id="Fill-70" fill="#FFFFFF"></path>
                    </g>
                    <g id="Page-1" transform="translate(328.000000, 58.000000) scale(-1, 1) translate(-328.000000, -58.000000) translate(298.000000, 0.000000)">
                        <path d="M38.2899036,90.3039546 C35.4944983,91.8634398 35.1474704,94.3742982 37.2714902,97.8382722 C39.2647206,101.019971 41.1289054,102.687487 42.8623009,102.861731 C41.627649,102.340741 41.257951,101.757023 41.7130981,101.086183 C42.515273,99.8525347 42.9041535,98.9203285 42.8623009,98.2947919 C42.5588695,97.6657705 41.7566946,96.3885608 40.4575199,94.4823296 C39.3501697,92.9245868 38.6369315,91.5149515 38.2899036,90.3039546" id="Fill-1" fill="#FFFFFF"></path>
                        <path d="M10.8565662,70.8820031 C10.1415842,70.557909 8.66802363,68.8468313 6.41321444,65.7505125 C4.72341545,63.4348075 2.77378151,62.6541937 0.585238951,63.4766261 C0.953193119,64.6893655 1.75536808,66.0763491 2.99001998,67.5905308 C4.41998405,69.4096399 5.33027824,70.6885921 5.72090257,71.4674635 C6.78291247,71.4239024 7.90944514,71.2496583 9.07957427,70.9464734 C9.88174923,70.7321531 10.488612,70.7077589 10.8565662,70.8820031" id="Fill-3" fill="#FFFFFF"></path>
                        <g id="Group-7" transform="translate(0.000000, 53.436245)">
                            <mask id="mask-4" fill="white">
                                <use xlink:href="#path-3"></use>
                            </mask>
                            <g id="Clip-6"></g>
                            <path d="M8.58135386,10.0403816 C8.45056447,9.99856295 8.234326,9.89053157 7.9518209,9.71628741 C7.69198597,9.58734673 7.4548212,9.4984822 7.23683887,9.45666361 C6.5654533,9.32598048 5.67608541,9.52113395 4.5722229,10.0403816 C1.58150538,4.15267126 0.0434220795,1.09991351 -0.000174385862,0.904760046 C2.12384541,0.296647914 3.85724087,1.27241523 5.22268217,3.80592537 C7.3240318,7.7908894 8.45056447,9.86613739 8.58135386,10.0403816" id="Fill-5" fill="#FFFFFF" mask="url(#mask-4)"></path>
                        </g>
                        <path d="M18.8519836,70.3204142 C16.4036061,70.3204142 15.1253577,71.8345959 14.9945683,74.8873537 C14.9509718,75.429253 14.973642,76.7482814 15.0590911,78.8078474 C15.1026875,80.431803 15.0381648,81.5783296 14.8655228,82.3153824 C18.1596717,79.5658095 19.5024428,75.5581937 18.8519836,70.3204142" id="Fill-8" fill="#FFFFFF"></path>
                        <path d="M12.0043739,73.1773215 L12.0043739,74.8866567 C11.4620339,73.4369453 11.3975111,71.4017734 11.8090618,68.7375802 C12.3723281,65.2980004 13.9557517,63.7385151 16.5767712,64.0417 C16.3169363,64.3640517 16.0135049,66.3155863 15.6246244,69.8649399 C15.3194492,72.3757983 14.1283937,73.4578546 12.0043739,73.1773215" id="Fill-10" fill="#FFFFFF"></path>
                        <path d="M12.567989,65.7499897 C10.508492,65.3614253 9.36103305,65.9451432 9.14479458,67.4610674 C9.23024365,67.1143215 9.33836289,66.1838577 9.46915228,64.6679335 C9.64179429,63.1537517 9.81618015,61.9410123 10.0324186,61.0541095 C10.8345936,58.0867314 12.4598698,56.8095217 14.8646508,57.1771769 C14.7356053,58.1076407 14.3240547,59.5155336 13.6509252,61.3764612 C13.0231361,63.0666296 12.655182,64.5180835 12.567989,65.7499897" id="Fill-12" fill="#FFFFFF"></path>
                        <path d="M7.99559175,58.324052 C10.33585,58.2369299 11.8966035,57.1984347 12.6987784,55.2277332 C13.0440624,54.4471193 13.3910903,52.650662 13.7171919,49.7721484 C11.680365,49.9655594 10.1405378,51.3298912 9.08027181,53.8215828 C8.14730745,55.8985732 7.80027959,57.9773061 7.99559175,60.0351297 L7.99559175,58.324052 Z" id="Fill-14" fill="#FFFFFF"></path>
                        <path d="M7.99559175,56.0506884 C7.54044465,55.4878797 6.71734339,53.3655858 5.52628795,49.641988 C4.68051652,46.8924151 3.22962616,45.4183095 1.14920283,45.2022467 C1.01841343,46.8924151 1.97056024,50.119417 4.00913096,54.9041618 C5.35190209,54.6863566 6.19767352,54.6427955 6.54470138,54.7734786 C6.63015046,54.8170397 7.10796772,55.2509077 7.99559175,56.0506884" id="Fill-16" fill="#FFFFFF"></path>
                        <path d="M12.0043739,42.8429808 C12.3078053,41.7609245 13.0227874,40.5690944 14.1719902,39.2936271 C15.4275684,37.8195215 16.2297434,36.716556 16.5767712,36.0021549 C14.7561828,35.32783 13.0437137,35.8697293 11.4411076,37.6470198 C10.1628592,39.0549126 9.2752352,40.6997775 8.77649164,42.6042662 C8.86194071,42.4317645 8.97005995,42.3219907 9.14444581,42.2801721 C9.90302431,42.8220715 10.856915,43.0172249 12.0043739,42.8429808" id="Fill-18" fill="#FFFFFF"></path>
                        <path d="M16.0140281,28.5749974 C20.8235901,24.482002 23.1219958,22.5775133 22.860417,22.8789557 C20.1086081,21.5146239 17.1841572,23.0305481 14.1062467,27.4267284 L14.3015589,27.4267284 C14.5404675,27.4702894 14.7776323,27.7316556 14.9956146,28.2055998 C15.2118531,28.5749974 15.5362108,28.7039381 16.0140281,28.5749974" id="Fill-20" fill="#FFFFFF"></path>
                        <path d="M13.7166687,28.011666 C13.7724723,27.6649201 13.939883,27.4697667 14.2166687,27.4262056 C14.1608651,27.5150701 13.9934544,27.7084812 13.7166687,28.011666" id="Fill-22" fill="#FFFFFF"></path>
                        <path d="M12.0043739,31.4319047 C11.6573461,30.8063682 11.8962547,28.9419556 12.6984297,25.8473793 C13.4134117,23.183186 13.0018611,21.4302897 11.4411076,20.5852055 C10.2500522,21.9495373 9.49147367,25.1747968 9.14444581,30.2853781 C9.53332628,30.2400746 10.1419329,30.5450019 10.9859605,31.1740233 C11.6154935,31.693271 11.9607775,31.7786506 12.0043739,31.4319047" id="Fill-24" fill="#FFFFFF"></path>
                        <path d="M30.4238806,9.30428986 C30.5755963,9.30428986 30.7709084,9.54300436 30.9871469,10.062252 C31.2469818,10.6041513 31.5713395,10.8846844 32.0055603,10.8846844 C32.0491568,10.8846844 34.9090849,10.1267223 40.5644184,8.58988879 C38.1160409,6.09993969 34.7364429,6.33865419 30.4238806,9.30428986" id="Fill-26" fill="#FFFFFF"></path>
                        <path d="M30.4238806,9.30428986 C29.9896598,9.62959106 29.7507511,9.80428986 29.7088985,9.80428986 C30.0123299,9.45489227 30.2494947,9.30428986 30.4238806,9.30428986" id="Fill-28" fill="#FFFFFF"></path>
                        <path d="M17.1405607,20.5850313 C16.5982207,20.6721533 16.1657438,21.1042789 15.8832387,21.9267113 C15.5798073,22.8153566 15.2327794,23.3119524 14.8648252,23.444378 C13.5865769,22.2943665 13.412191,20.4979092 14.3451554,18.0515211 C15.2118531,15.7567255 16.3174595,14.3279233 17.7247534,13.742463 C18.3525425,14.5439861 18.4850757,15.6051331 18.0927075,16.9049945 C17.4230658,19.3513826 17.0969643,20.3898778 17.1405607,20.0222226 C18.0281848,20.2591947 19.4581488,19.6545674 21.4095266,18.1822042 C23.3818307,16.6436283 25.3959874,16.1243807 27.4328143,16.5791579 C26.5887867,18.398267 24.9844368,19.8061599 22.600582,20.7801847 C20.1940572,21.7542096 18.3752126,21.6879968 17.1405607,20.5850313" id="Fill-30" fill="#FFFFFF"></path>
                        <path d="M20.5857278,18.3118419 C20.3677455,18.1829012 20.1096544,17.7699426 19.806223,17.0991025 C19.5673144,16.5136421 19.2412128,16.1459869 18.8523323,16.0170463 C19.1993602,14.414 19.9352685,12.7464833 21.0844714,11.0144963 C22.2336742,9.28250934 23.2067473,8.28757516 24.0089223,8.02795136 C25.1145286,8.3729548 25.2662443,9.218039 24.5076658,10.5597191 C23.4020595,12.4659502 22.8614633,13.5270972 22.8614633,13.7431599 C24.2914274,14.457561 25.3098408,14.2188465 25.9167036,13.0287589 C26.5008962,11.8595805 26.2410613,10.756615 25.1354549,9.73728661 C25.5260793,9.32607038 26.0457491,8.65523035 26.7398049,7.76832755 C27.4547869,6.83612128 27.9744568,6.18793299 28.3232285,5.79588362 C29.6433294,4.32526288 31.0523672,3.351238 32.5695242,2.89646073 C32.8729556,4.32526288 32.0707806,5.94747604 30.1647432,7.76832755 C27.8663375,9.89062147 26.5880892,11.4919253 26.2846578,12.5966333 C26.6316856,12.5530723 27.1513555,12.3997374 27.8663375,12.1401136 C28.7557054,11.8595805 29.3834945,11.6644271 29.7078522,11.5790474 C31.2476794,11.1887405 32.374212,11.3403329 33.1554607,12.0320822 C32.6776434,12.9416368 31.5075143,13.6995989 29.6659996,14.2414982 C27.5855763,14.8687772 26.2637315,15.4751469 25.7213914,16.0170463 C25.2435742,15.9299242 24.7465745,15.6703004 24.2042344,15.2590842 C23.555519,14.7607458 23.1212982,14.4366517 22.8614633,14.3059686 C21.9302428,14.93499 21.3443063,15.4106766 21.0844714,15.6929521 C20.5857278,16.3847015 20.4130858,17.2506949 20.5857278,18.3118419" id="Fill-32" fill="#FFFFFF"></path>
                        <path d="M58.8543563,107.993919 C57.4243923,108.297104 55.5828776,108.103693 53.3280684,107.432853 C51.2267188,106.782922 49.817681,106.608678 49.1462954,106.847392 C49.817681,107.279518 51.0523329,107.690734 52.8293248,108.058389 C54.6935097,108.405135 55.9281616,108.751881 56.5786209,109.140446 C56.5350244,109.185749 54.9306745,109.854847 51.8109114,111.175617 C49.8612775,112.020702 48.6039554,113.060939 47.9970926,114.273679 C48.5185063,114.186557 49.8403512,114.575121 52.0062236,115.420205 C52.4195181,113.9461 53.4588578,112.670632 55.1050603,111.609485 C55.5392811,111.349862 56.2542632,110.959555 57.2726766,110.396746 C58.2474935,109.90015 58.9624756,109.487192 59.438549,109.140446 C58.3346865,109.185749 58.1393743,108.7937 58.8543563,107.993919" id="Fill-34" fill="#FFFFFF"></path>
                        <path d="M32.5688267,109.703951 C32.3525882,106.759225 34.4120852,105.025495 38.7229037,104.572461 C39.6977207,104.485339 41.4537863,104.420868 44.0120269,104.377307 C45.9825871,104.335489 47.3253583,104.204805 47.9984877,104.00791 C47.9548912,104.291928 47.6723861,104.464429 47.1091198,104.509733 C46.9800743,104.549809 46.7620919,104.572461 46.4150641,104.572461 C46.1133765,104.5289 45.8953942,104.5289 45.7210083,104.572461 C46.3505413,107.149532 44.9641737,108.686365 41.5183091,109.205613 C40.4789693,109.378115 38.8955457,109.487889 36.8377926,109.508798 C34.7137728,109.552359 33.2838087,109.616829 32.5688267,109.703951" id="Fill-36" fill="#FFFFFF"></path>
                        <path d="M35.9925443,104.571938 C35.3211587,104.788001 31.1393858,104.59459 23.4245552,104.009129 C24.2685828,101.346678 26.3280798,100.111287 29.5995586,100.329093 C35.0177273,100.653187 38.0956378,100.742051 38.8542163,100.567807 C37.0336279,101.303117 36.0797372,102.623888 35.9925443,104.571938" id="Fill-38" fill="#FFFFFF"></path>
                        <path d="M30.8572294,96.5830173 C30.6392471,96.6265783 27.9537048,95.9975569 22.7953711,94.7412564 C19.5448186,93.9414757 17.4661391,94.9381524 16.5767712,97.7295439 C24.3561245,99.2472105 27.9746311,100.005173 27.434035,100.005173 C27.8229154,98.3603077 28.9494481,97.2102962 30.8572294,96.5830173" id="Fill-40" fill="#FFFFFF"></path>
                        <path d="M44.011155,93.1627786 C44.5953476,93.5304338 47.0646514,95.9977311 51.4225541,100.568156 C51.5080032,101.216344 51.312691,102.192111 50.7930211,103.49023 C50.4895897,104.162813 50.9011404,104.723879 52.0067467,105.135095 C49.5356991,104.335314 47.390753,102.970983 45.528312,101.02119 C42.9927415,98.4023006 42.4713278,95.7816684 44.011155,93.1627786" id="Fill-42" fill="#FFFFFF"></path>
                        <path d="M21.1493429,93.7241933 C21.1493429,92.5776667 21.5835637,91.9277359 22.4711877,91.7552342 C24.0528675,91.4503069 24.7469232,91.3649273 24.5725374,91.4311401 C24.5725374,91.4311401 22.0596371,90.4780245 17.0094226,88.5282323 C13.846063,87.2963261 11.5929977,87.8783016 10.2920792,90.3037803 C11.0942541,90.4780245 12.7422005,91.1924256 15.2324306,92.448726 C17.1402119,93.4663119 19.112516,93.8984374 21.1493429,93.7241933" id="Fill-44" fill="#FFFFFF"></path>
                        <path id="Fill-46" fill="#FFFFFF"></path>
                        <path d="M31.442294,86.2984297 C31.6376062,86.8612384 32.1136796,87.7707929 32.8286616,89.0270933 C33.6308366,90.4768048 34.1731766,91.4943907 34.476608,92.1443214 C35.5386179,94.6342705 35.0817269,96.3000447 33.1547632,97.1451289 C33.2628824,97.2775545 33.3919279,97.516269 33.5227173,97.8386207 C33.6535067,98.1853666 33.761626,98.4240811 33.847075,98.5530218 C31.984634,97.232251 30.6191927,95.3922326 29.7734213,93.0329667 C28.7340816,90.110892 29.2746777,87.857915 31.442294,86.2984297" id="Fill-48" fill="#FFFFFF"></path>
                        <path d="M28.5820171,90.3039546 C28.5384206,90.889415 27.9960806,91.5811643 26.979411,92.3826874 C26.2208325,92.9890571 26.1772361,93.813232 26.8695479,94.8726365 C22.8394907,88.6590897 22.4488663,84.2629094 25.722089,81.7293993 C26.6533095,82.2068283 27.2601723,83.484038 27.5636037,85.6063319 C27.8461088,88.1398421 28.1913928,89.6975849 28.5820171,90.3039546" id="Fill-50" fill="#FFFFFF"></path>
                        <path d="M17.1405607,85.1515546 C16.5110278,84.9982198 16.0994771,85.216025 15.8832387,85.8659557 C15.6670002,86.5803568 15.3199723,86.9271027 14.8648252,86.8835416 C12.6989528,86.4932347 10.747575,85.7126209 9.01417957,84.5225332 C7.1081421,83.2662328 6.19784791,81.945462 6.28329698,80.6055244 C8.53636231,79.6715757 10.7702452,80.0392309 13.0233105,81.7293993 C15.8187159,83.8952542 17.7683498,85.0417808 18.851286,85.1515546 C18.7013142,85.5401191 18.4414792,85.6708023 18.0927075,85.5401191 C17.3794693,85.2804953 17.0533678,85.1515546 17.1405607,85.1515546" id="Fill-52" fill="#FFFFFF"></path>
                        <path d="M22.2980226,76.5993026 C23.5989411,80.1068376 23.0339309,84.2852127 20.5855534,89.1570795 C19.3927541,85.1076451 18.7667089,82.5950443 18.6777721,81.6645804 C18.4615336,78.7198541 19.6752592,77.0105188 22.2980226,76.5993026" id="Fill-54" fill="#FFFFFF"></path>
                        <path d="M14.3017333,78.3095091 C12.3520993,79.7365688 9.94557446,79.5658095 7.10831649,77.7467004 C4.48555313,76.0147134 3.07651537,74.1084823 2.8602769,72.0297494 C4.94070023,71.3153483 6.9984534,71.9861884 9.01435396,74.0649212 C11.5272542,76.6001738 13.2833198,78.0045818 14.3017333,78.3095091" id="Fill-56" fill="#FFFFFF"></path>
                        <path d="M10.2927767,50.8982884 C10.0747944,50.8547274 9.77310684,50.7885146 9.33888604,50.6595739 C8.94826171,50.5288908 8.69017064,50.4417687 8.51578478,50.3999501 C7.97344475,50.3563891 7.60549058,50.7240443 7.43284858,51.4837488 C8.06063768,48.9920573 8.71109694,47.1956 9.33888604,46.090892 C10.7043273,43.7507928 12.5249157,42.6931308 14.865174,42.8429808 C14.7343846,43.3639708 13.2172276,46.0490734 10.2927767,50.8982884" id="Fill-58" fill="#FFFFFF"></path>
                        <path d="M7.75790382,47.5426943 C7.41087596,47.0426136 6.84760963,46.7394287 6.04543466,46.6540491 C5.15781063,46.566927 4.4637549,46.2654846 4.0086078,45.7009335 C3.96501133,44.7269086 3.76969917,43.3416675 3.44534147,41.5225585 C3.0983136,39.8341325 2.90300144,38.1875252 2.85940497,36.5635696 C5.02702123,36.5200085 6.3052696,37.9069921 6.73949039,40.6983836 C7.32368303,45.1398673 7.67071089,47.4120112 7.75790382,47.5426943" id="Fill-60" fill="#FFFFFF"></path>
                        <path d="M18.8519836,29.1587153 C17.5946615,32.6226893 14.7347334,34.8965757 10.2931255,36.0030261 C10.6401533,34.5289205 11.5923001,32.9258742 13.2175764,31.2374482 C15.1689542,29.1813671 17.033139,28.466966 18.8519836,29.1587153" id="Fill-62" fill="#FFFFFF"></path>
                        <path d="M9.14427142,40.0062858 C8.96988556,39.8773451 8.84084002,39.6612823 8.71005063,39.3580975 C8.49381216,38.9468812 8.34209646,38.685515 8.25664739,38.5983929 C7.88694936,38.1017971 7.21556379,37.9937657 6.28434329,38.2760412 C5.87279266,35.3731334 5.87279266,31.9300688 6.28434329,28.0113175 C8.23397723,28.3354117 9.18612403,30.0255801 9.14427142,33.012125 C9.10241882,37.4971698 9.10241882,39.833784 9.14427142,40.0062858" id="Fill-64" fill="#FFFFFF"></path>
                        <path d="M37.141224,5.16947585 C37.3574624,5.12591481 38.2904268,4.88720031 39.9366293,4.47598408 C41.2148777,4.12923819 42.2559613,3.91317543 43.0563924,3.78423475 C45.5919628,3.35036678 47.4334775,3.63264233 48.5826803,4.6066672 C47.846772,5.4517514 46.329615,5.90478622 44.010283,5.9919083 C40.5208219,6.16441003 38.6357108,6.27244141 38.2904268,6.31774489 C38.4630688,5.64516242 38.0724445,5.25659793 37.141224,5.16947585" id="Fill-66" fill="#FFFFFF"></path>
                        <path d="M49.7093874,1.74749472 C49.3850297,0.233312935 48.0631848,-0.308586414 45.7874494,0.167100153 C43.5326402,0.621877421 42.3642549,1.53143196 42.2979883,2.89576376 C43.0147142,3.26341894 44.1185767,3.17629686 45.65666,2.63613995 C47.4336519,1.96529992 48.7781669,1.66037264 49.7093874,1.74749472" id="Fill-68" fill="#FFFFFF"></path>
                        <path d="M40.565116,0.0374624952 C39.8501339,3.0257499 37.1837741,5.12539208 32.5695242,6.31722216 C33.978562,3.52408821 36.6431779,1.4227036 40.565116,0.0374624952" id="Fill-70" fill="#FFFFFF"></path>
                    </g>
                </g>
            </g>
        </g>
    </g>
</svg>