<svg width="1024" height="764" viewBox="0 0 1024 764" xmlns="http://www.w3.org/2000/svg"><title>background-texture</title><g fill="none" fill-rule="evenodd"><path d="M212.969 487.163L1294.63.499V894.37L218.225 494.146l-5.256-6.983zm52.838-423.887L213.307 0l-.676.998 52.501 63.275.675-.997z" fill="#F8F8F8"/><g opacity=".239" fill="#CACACA"><path d="M219.035 484.207L-94.987 442.31l-62.397 152.464-357.723 2.482 37.54 256.264 334.766-121.156 101.25-208.519z"/><path d="M-83.952 269.064l-97.711 132.596-347.698-84.718-26.05 257.581 354.38-35.921 149.054-177.473 268.416 123.35zM219.763 487.172l-262.419 91.857-.886 164.83-330.683 135.82 130.517 223.903L21.363 866.161l15.975-231.376zM-88.964-82.889l-217.197-9.885 521.305 575.92z"/></g></g></svg>