<svg width="12" height="13" viewBox="0 0 12 13" xmlns="http://www.w3.org/2000/svg" xmlns:xlink="http://www.w3.org/1999/xlink"><title>cc-white</title><defs><path id="a" d="M5.934 12.047h5.933V.117H0v11.93h5.934z"/></defs><g fill="none" fill-rule="evenodd"><g transform="translate(0 .071)"><mask id="b" fill="#fff"><use xlink:href="#a"/></mask><path d="M9.362 9.498c-.96.948-2.198 1.454-3.467 1.454-1.286 0-2.491-.506-3.419-1.438-.928-.932-1.449-2.157-1.449-3.432 0-1.291.521-2.517 1.449-3.465.912-.931 2.084-1.421 3.419-1.421 1.334 0 2.523.506 3.45 1.438.912.915 1.4 2.124 1.4 3.448 0 1.34-.471 2.517-1.383 3.416m.796-7.632C9.018.722 7.553.116 5.925.116c-1.627 0-3.06.606-4.167 1.733C.618 3.01 0 4.513 0 6.082c0 1.585.602 3.056 1.742 4.2 1.14 1.144 2.62 1.765 4.183 1.765 1.563 0 3.077-.62 4.25-1.781 1.106-1.095 1.692-2.55 1.692-4.184 0-1.618-.586-3.089-1.71-4.216" fill="#FFF" mask="url(#b)"/></g><path d="M5.818 5.162c-.336-.614-.908-.859-1.573-.859-.967 0-1.738.687-1.738 1.85 0 1.183.724 1.85 1.771 1.85.671 0 1.244-.37 1.56-.931L5.1 6.695c-.165.397-.415.516-.73.516-.547 0-.797-.456-.797-1.058 0-.6.21-1.057.796-1.057.158 0 .474.086.658.483l.79-.417M9.296 5.252c-.302-.632-.861-.906-1.525-.942-.966-.052-1.771.593-1.834 1.754-.063 1.181.625 1.886 1.67 1.942.67.036 1.262-.302 1.607-.846l-.716-.416c-.185.387-.441.493-.757.475-.545-.029-.77-.497-.739-1.098.032-.6.267-1.044.852-1.013.157.009.468.111.631.517l.811-.373" fill="#FFF"/></g></svg>