<svg width="45" height="45" viewBox="0 0 45 45" xmlns="http://www.w3.org/2000/svg"><title>icon-calendar</title><g fill="none" fill-rule="evenodd"><circle fill="#FE4223" cx="22.5" cy="22.5" r="22.5"/><path d="M11.923 32.862h21.154V17.477H11.923v15.385zm3.847-22.596c0-.14.045-.256.135-.346a.467.467 0 0 1 .345-.135h.961c.141 0 .256.045.346.135.09.09.135.206.135.346v4.327c0 .14-.045.255-.135.345a.468.468 0 0 1-.346.135h-.961a.468.468 0 0 1-.345-.135.469.469 0 0 1-.135-.345v-4.327zm11.538 0c0-.14.045-.256.135-.346a.467.467 0 0 1 .346-.135h.961a.47.47 0 0 1 .346.135c.09.09.135.206.135.346v4.327c0 .14-.045.255-.135.345a.47.47 0 0 1-.346.135h-.961a.468.468 0 0 1-.346-.135.468.468 0 0 1-.135-.345v-4.327zm7.121 1.92c-.38-.38-.83-.57-1.351-.57h-1.924v-1.442c0-.661-.235-1.227-.706-1.699a2.32 2.32 0 0 0-1.698-.706h-.961c-.661 0-1.227.237-1.698.706a2.317 2.317 0 0 0-.707 1.699v1.442h-5.768v-1.442c0-.661-.236-1.227-.706-1.699a2.319 2.319 0 0 0-1.699-.706h-.961c-.661 0-1.227.237-1.698.706a2.316 2.316 0 0 0-.705 1.699v1.442h-1.924c-.521 0-.971.19-1.352.57-.381.38-.571.832-.571 1.353V32.77c0 .52.19.97.571 1.352.38.38.83.57 1.352.57h21.154c.521 0 .972-.19 1.352-.57.381-.381.571-.831.571-1.352V13.54c0-.522-.19-.973-.571-1.353z" fill="#FFF"/></g></svg>