<svg width="33" height="34" viewBox="0 0 33 34" xmlns="http://www.w3.org/2000/svg" xmlns:xlink="http://www.w3.org/1999/xlink"><title>icon-twitter</title><defs><path id="a" d="M0 .473h32.146v32.588H0"/></defs><g fill="none" fill-rule="evenodd"><path d="M32.318 17.219c0 8.662-6.928 15.685-15.473 15.685-8.546 0-15.472-7.023-15.472-15.685 0-8.663 6.926-15.686 15.472-15.686 8.545 0 15.473 7.023 15.473 15.686" fill="#FFF"/><g transform="translate(.831 .451)"><mask id="b" fill="#fff"><use xlink:href="#a"/></mask><path d="M23.243 13.04c.008.16.01.323.01.487 0 4.953-3.72 10.668-10.526 10.668-2.09 0-4.034-.617-5.67-1.687a7.353 7.353 0 0 0 5.478-1.552c-1.62-.03-2.985-1.115-3.456-2.604a3.646 3.646 0 0 0 1.669-.064c-1.691-.343-2.968-1.858-2.968-3.675 0-.017 0-.033.002-.048.497.282 1.07.448 1.677.468a3.757 3.757 0 0 1-1.648-3.12c0-.688.184-1.333.5-1.887 1.823 2.27 4.553 3.763 7.624 3.921a3.884 3.884 0 0 1-.094-.857c0-2.069 1.656-3.75 3.698-3.75a3.67 3.67 0 0 1 2.7 1.182 7.173 7.173 0 0 0 2.35-.91 3.754 3.754 0 0 1-1.626 2.078 7.195 7.195 0 0 0 2.123-.59 7.562 7.562 0 0 1-1.843 1.94M16.072.474C7.21.473 0 7.783 0 16.767c0 8.985 7.21 16.294 16.072 16.294 8.861 0 16.074-7.31 16.074-16.294 0-8.984-7.213-16.294-16.074-16.294" fill="#25C2EC" mask="url(#b)"/></g></g></svg>