<svg width="33" height="33" viewBox="0 0 33 33" xmlns="http://www.w3.org/2000/svg" xmlns:xlink="http://www.w3.org/1999/xlink"><title>icon-facebook</title><defs><path id="a" d="M0 .464h32.145v31.879H0"/><path id="c" d="M0 .464h32.145v31.879H0z"/></defs><g fill="none" fill-rule="evenodd"><g transform="translate(0 .451)"><mask id="b" fill="#fff"><use xlink:href="#a"/></mask><path d="M31.545 15.808c0 8.475-6.928 15.346-15.472 15.346C7.527 31.154.6 24.283.6 15.808.6 7.334 7.527.463 16.073.463c8.544 0 15.472 6.87 15.472 15.345" fill="#FFF" mask="url(#b)"/></g><g transform="translate(0 .451)"><mask id="d" fill="#fff"><use xlink:href="#c"/></mask><path d="M20.068 16.96h-2.612v9.249H13.58V16.96h-1.842v-3.264h1.842v-2.113c0-1.512.725-3.878 3.91-3.878l2.87.013v3.168h-2.083c-.341 0-.821.171-.821.89V13.7h2.953l-.34 3.26zM16.07.464C7.21.463 0 7.615 0 16.403c0 8.79 7.21 15.94 16.07 15.94 8.864 0 16.075-7.15 16.075-15.94 0-8.788-7.211-15.94-16.076-15.94z" fill="#4577BA" mask="url(#d)"/></g></g></svg>