<svg width="45" height="45" viewBox="0 0 45 45" xmlns="http://www.w3.org/2000/svg" xmlns:xlink="http://www.w3.org/1999/xlink"><title>icon-speaker</title><defs><path id="a" d="M0 24.518h28.466V.196H0v24.322z"/></defs><g fill="none" fill-rule="evenodd"><circle fill="#F6A623" cx="22.5" cy="22.5" r="22.5"/><g transform="translate(9.356 9.85)"><mask id="b" fill="#fff"><use xlink:href="#a"/></mask><path d="M26.433 8.297V2.22c0-.549-.201-1.023-.604-1.424A1.956 1.956 0 0 0 24.4.196c-4.882 4.05-9.626 6.075-14.232 6.075H2.542c-.699 0-1.298.249-1.796.745A2.432 2.432 0 0 0 0 8.803v3.038c0 .696.249 1.293.746 1.788a2.452 2.452 0 0 0 1.795.744h1.938a8.25 8.25 0 0 0-.35 1.748 12.81 12.81 0 0 0-.054 1.559c.015.443.095.975.237 1.598.143.622.265 1.091.366 1.408.1.316.27.814.508 1.495.239.68.395 1.142.47 1.385.486.442 1.185.736 2.096.878.91.142 1.803.081 2.677-.182.873-.264 1.464-.702 1.77-1.314a27.942 27.942 0 0 1-.977-.799 6.972 6.972 0 0 1-.762-.79c-.26-.312-.436-.602-.533-.87a2.15 2.15 0 0 1-.095-.918c.033-.344.155-.689.366-1.037a2.143 2.143 0 0 1-.635-1.464c-.021-.564.143-1.094.492-1.59.35-.495.831-.843 1.446-1.044 4.184.348 8.483 2.352 12.898 6.013a1.96 1.96 0 0 0 1.43-.602c.403-.4.604-.876.604-1.424v-6.075c.561 0 1.04-.199 1.437-.594.397-.396.596-.872.596-1.432 0-.56-.199-1.036-.596-1.432a1.964 1.964 0 0 0-1.437-.593z" fill="#FFF" mask="url(#b)"/></g><path d="M33.756 27.702c-4.14-3.154-8.208-4.951-12.2-5.395v-4.272c3.96-.433 8.028-2.242 12.2-5.427v15.094z" fill="#F6A623"/></g></svg>