<svg width="45" height="45" viewBox="0 0 45 45" xmlns="http://www.w3.org/2000/svg" xmlns:xlink="http://www.w3.org/1999/xlink"><title>icon-award</title><defs><circle id="a" cx="22.5" cy="22.5" r="22.5"/><path id="c" d="M54.961 68.945V0H0v68.945z"/></defs><g fill="none" fill-rule="evenodd"><mask id="b" fill="#fff"><use xlink:href="#a"/></mask><use fill="#F6A623" xlink:href="#a"/><g mask="url(#b)"><g transform="translate(0 7)"><mask id="d" fill="#fff"><use xlink:href="#c"/></mask><path d="M21.207 24.54l-.233.415a128.865 128.865 0 0 1-2.187 3.787c-.137-.526-.283-1.053-.435-1.6-.104-.375-.211-.762-.317-1.154a14.846 14.846 0 0 1-.033-.124c-.117-.45-.263-1.01-.792-1.15a1.102 1.102 0 0 0-.284-.033c-.322 0-.696.107-.997.193a228.226 228.226 0 0 0-2.624.73c.312-.578.657-1.161 1.016-1.767.348-.588.705-1.192 1.035-1.8 1.456 1.065 3.282 2.121 5.851 2.503m9.182-5.164c-1.803 1.906-4.298 3.026-7.025 3.152-.155.008-.313.011-.468.011-2.6 0-5.113-1.021-6.896-2.802-2.039-2.038-3.014-4.206-3.163-7.03-.195-3.724 1.643-6.183 2.756-7.318.994-1.013 1.867-1.662 2.922-2.173 1.278-.618 2.635-.953 4.15-1.025a9.94 9.94 0 0 1 .468-.011c3.595 0 6.023 1.963 6.9 2.808C31.43 6.33 33.11 8.638 33.19 12c.07 2.898-.846 5.31-2.8 7.376m.238 2.66a103.787 103.787 0 0 1 2.074 3.567 57.27 57.27 0 0 1-1.451-.403c-.321-.092-.653-.187-.988-.28l-.119-.032c-.31-.088-.663-.186-.994-.186-.531 0-.807.26-.944.478-.156.248-.212.565-.266.872-.023.128-.044.249-.07.348-.156.587-.335 1.23-.509 1.851l-.14.505c-.406-.682-.803-1.377-1.191-2.055-.404-.705-.818-1.43-1.241-2.14 2.28-.398 4.199-1.228 5.839-2.526m4.62 3.685c-.076-.11-.146-.215-.183-.279l-.852-1.503a252.443 252.443 0 0 0-1.96-3.42c1.044-1.28 1.767-2.47 2.268-3.726.662-1.664.925-3.43.802-5.4-.248-3.998-2.331-6.641-4.035-8.154C28.87 1.089 26.08 0 22.996 0c-.231 0-.467.006-.701.019-2.396.127-4.669.94-6.573 2.349a12.42 12.42 0 0 0-4 5.031c-1.037 2.392-1.308 5.073-.762 7.55.272 1.232.672 2.331 1.19 3.267.348.628.754 1.175 1.146 1.704.157.212.308.416.454.622-.482.853-1.008 1.748-1.563 2.691-.42.714-.854 1.452-1.264 2.166-.034.058-.093.149-.16.254-.446.687-.838 1.346-.75 1.864.089.528.468.83 1.04.83.328 0 .678-.092.988-.175.533-.141 1.05-.285 1.549-.425.859-.24 1.677-.468 2.52-.67.114.43.234.854.359 1.296.119.422.242.858.363 1.313.032.12.065.292.104.493.186.97.468 2.436 1.5 2.436l.04-.001c.723-.029 1.2-.965 1.516-1.585.054-.106.1-.198.137-.26.342-.597.677-1.188 1.001-1.76.638-1.124 1.246-2.196 1.88-3.259.544.934 1.072 1.866 1.626 2.842.41.723.834 1.47 1.264 2.218.034.06.078.145.13.245.315.622.793 1.56 1.588 1.56l.058-.001c.763-.048.935-.744 1.06-1.253.016-.066.032-.133.05-.2.302-1.136.607-2.23.902-3.287l.22-.789c.405.105.83.212 1.273.325.82.207 1.667.422 2.478.64.102.027.22.067.346.109.303.102.647.218.96.218.116 0 .223-.015.32-.046.422-.135.593-.4.662-.6.224-.648-.31-1.436-.7-2.011" fill="#FFF" mask="url(#d)"/></g></g></g></svg>