<?xml version="1.0" encoding="utf-8"?>
<!-- Generator: Adobe Illustrator 21.1.0, SVG Export Plug-In . SVG Version: 6.00 Build 0)  -->
<svg version="1.1" id="Layer_1" xmlns="http://www.w3.org/2000/svg" xmlns:xlink="http://www.w3.org/1999/xlink" x="0px" y="0px"
	 viewBox="0 0 36 36" style="enable-background:new 0 0 36 36;" xml:space="preserve">
<style type="text/css">
	.st0{fill:#FFFFFF;}
	.st1{fill:#919191;}
</style>
<circle class="st0" cx="18" cy="18" r="14.4"/>
<g>
	<g>
		<path class="st1" d="M18,0.1C8.1,0.1,0.1,8.1,0.1,18c0,9.9,8,17.9,17.9,17.9c9.9,0,17.9-8,17.9-17.9C35.9,8.1,27.9,0.1,18,0.1
			L18,0.1z M18,6.4L28.6,13H7.4L18,6.4z M28.7,23.5L28.7,23.5c0,1.1-0.9,1.9-1.9,1.9H9.2c-1.1,0-1.9-0.9-1.9-1.9V13.4
			c0-0.1,0-0.2,0-0.3l10.1,6.3c0,0,0,0,0,0c0,0,0,0,0,0c0.1,0,0.1,0.1,0.2,0.1c0,0,0,0,0,0c0.1,0,0.2,0,0.2,0h0c0.1,0,0.2,0,0.2,0
			c0,0,0,0,0,0c0.1,0,0.1,0,0.2-0.1c0,0,0,0,0,0c0,0,0,0,0,0l10.1-6.3c0,0.1,0,0.2,0,0.3V23.5z M28.7,23.5"/>
	</g>
</g>
</svg>
