<?xml version="1.0" encoding="UTF-8" standalone="no"?>
<svg width="33px" height="28px" viewBox="0 0 33 28" version="1.1" xmlns="http://www.w3.org/2000/svg" xmlns:xlink="http://www.w3.org/1999/xlink">
    <!-- Generator: Sketch 40.3 (33839) - http://www.bohemiancoding.com/sketch -->
    <title>twitter</title>
    <desc>Created with Sketch.</desc>
    <defs></defs>
    <g id="Page-1" stroke="none" stroke-width="1" fill="none" fill-rule="evenodd">
        <g id="main-page-vr-2" transform="translate(-412.000000, -5546.000000)" fill="#3FA9F6">
            <g id="Social-Media" transform="translate(42.000000, 5503.000000)">
                <path d="M374.834461,64.8259397 C375.534596,64.7138135 376.175688,64.4770029 376.809823,64.2274547 C375.239915,63.2141922 373.827515,62.0563318 372.512688,60.6681191 C372.041591,60.1747637 372.381758,59.3464647 373.068693,59.3269098 C373.630942,59.3527437 374.180883,59.3062786 374.716553,59.1950494 C373.349461,57.4516208 372.290429,55.57687 371.466142,53.471767 C371.243883,52.9062919 371.898175,52.3336407 372.427602,52.5046108 C372.734948,52.6301922 373.04925,52.7155876 373.369796,52.7807105 C372.394958,50.4260593 372.192142,48.0511358 372.734948,45.4463982 C372.859634,44.8479132 373.64432,44.702777 374.043531,45.0972819 C377.169969,48.1892753 381.120158,49.6763384 385.345407,50.3862321 C384.972775,47.478664 387.026802,44.3873883 389.721385,43.3741258 C391.958072,42.5388301 394.960537,43.1105843 396.464802,45.0056075 C397.472461,44.3671158 398.865239,44.1568567 399.983672,43.9591557 C400.572499,43.8604846 401.141704,44.4392354 400.794758,45.0251623 C400.389126,45.7090427 400.003115,46.4393883 399.578039,47.1365444 C400.441391,46.8801789 401.33132,46.7224846 402.221072,46.6103584 C402.862164,46.5247836 403.247461,47.5177736 402.75692,47.9131756 C401.717331,48.7484713 400.683985,49.7021723 399.578039,50.4653484 C399.545396,57.8524049 397.399861,64.0494879 390.839639,68.2528766 C385.371985,71.7659265 375.207093,71.1737205 370.452239,66.3915809 C370.236223,66.3390162 370.12545,66.1806042 370.085672,66.0096341 C369.903191,65.7335344 370.033585,65.3912354 370.276002,65.2597338 C370.367331,65.1483251 370.485061,65.062571 370.635434,65.0431956 C372.028391,64.8715079 373.441504,65.0557537 374.834461,64.8259397 Z" id="twitter"></path>
            </g>
        </g>
    </g>
</svg>